<svg id="Layer_1" enable-background="new 0 0 512 512" height="512" viewBox="0 0 512 512" width="512" xmlns="http://www.w3.org/2000/svg"><g><g><g><g><g><path d="m145.3 344.7c-2.7 0-4.9-2.2-4.9-4.9v-46.1c0-11.5 9.4-20.9 20.9-20.9h79.7c2.7 0 4.9 2.2 4.9 4.9s-2.2 4.9-4.9 4.9h-79.6c-6.1 0-11.1 5-11.1 11.1v46.1c-.1 2.7-2.3 4.9-5 4.9z" fill="#ef5350"/></g><g><path d="m145.3 344.7c-1.2 0-2.4-.4-3.3-1.3l-22.4-21c-2-1.8-2.1-4.9-.2-6.9 1.8-2 4.9-2.1 6.9-.2l19 17.9 18.9-17.9c2-1.9 5.1-1.8 6.9.2 1.9 2 1.8 5.1-.2 6.9l-22.3 21c-.9.9-2.1 1.3-3.3 1.3z" fill="#ef5350"/></g></g></g><g><g><g><path d="m197.6 445.2h-104.7c-5.7 0-10.3-4.6-10.3-10.3v-67.7c0-5.7 4.6-10.3 10.3-10.3h104.8c5.7 0 10.3 4.6 10.3 10.3v67.7.2c-.3 5.6-4.9 10.1-10.4 10.1zm-104.7-78.5c-.2 0-.5.3-.5.5v67.7c0 .2.3.5.5.5h104.7c.2 0 .6-.3.6-.6v-67.6c0-.2-.3-.5-.5-.5z" fill="#ef5350"/></g><g><g><path d="m133 471c-2.7 0-4.9-2.2-4.9-4.9v-25.8c0-2.7 2.2-4.9 4.9-4.9s4.9 2.2 4.9 4.9v25.8c-.1 2.7-2.2 4.9-4.9 4.9z" fill="#ef5350"/></g><g><path d="m157.6 471c-2.7 0-4.9-2.2-4.9-4.9v-25.8c0-2.7 2.2-4.9 4.9-4.9s4.9 2.2 4.9 4.9v25.8c0 2.7-2.2 4.9-4.9 4.9z" fill="#ef5350"/></g></g><g><path d="m167.2 471h-43.9c-2.7 0-4.9-2.2-4.9-4.9s2.2-4.9 4.9-4.9h43.9c2.7 0 4.9 2.2 4.9 4.9s-2.2 4.9-4.9 4.9z" fill="#ef5350"/></g></g></g></g><g><g><g><g><path d="m366.7 344.8c-2.7 0-4.9-2.2-4.9-4.9v-46.1c0-6.1-5-11.1-11.1-11.1h-79.8c-2.7 0-4.9-2.2-4.9-4.9s2.2-4.9 4.9-4.9h79.8c11.5 0 20.9 9.4 20.9 20.9v46.1c0 2.7-2.2 4.9-4.9 4.9z" fill="#ef5350"/></g><g><path d="m366.7 344.7c-1.2 0-2.4-.4-3.4-1.3l-22.3-21c-2-1.9-2.1-4.9-.2-6.9s4.9-2.1 6.9-.2l18.9 17.9 19-17.9c2-1.8 5.1-1.7 6.9.2 1.8 2 1.7 5.1-.2 6.9l-22.4 21c-.8.9-2 1.3-3.2 1.3z" fill="#ef5350"/></g></g></g><g><g><g><path d="m419.1 445.2h-104.7c-5.5 0-10.2-4.5-10.4-10.1 0-.1 0-.1 0-.2v-67.7c0-5.7 4.6-10.3 10.3-10.3h104.8c5.7 0 10.3 4.6 10.3 10.3v67.7c0 5.7-4.6 10.3-10.3 10.3zm-105.2-10.4c0 .3.3.6.6.6h104.7c.2 0 .5-.3.5-.5v-67.7c0-.2-.3-.5-.5-.5h-104.9c-.2 0-.5.3-.5.5v67.6z" fill="#ef5350"/></g><g><g><path d="m379 471c-2.7 0-4.9-2.2-4.9-4.9v-25.8c0-2.7 2.2-4.9 4.9-4.9s4.9 2.2 4.9 4.9v25.8c0 2.7-2.2 4.9-4.9 4.9z" fill="#ef5350"/></g><g><path d="m354.4 471c-2.7 0-4.9-2.2-4.9-4.9v-25.8c0-2.7 2.2-4.9 4.9-4.9s4.9 2.2 4.9 4.9v25.8c0 2.7-2.2 4.9-4.9 4.9z" fill="#ef5350"/></g></g><g><path d="m388.7 471h-43.9c-2.7 0-4.9-2.2-4.9-4.9s2.2-4.9 4.9-4.9h43.9c2.7 0 4.9 2.2 4.9 4.9s-2.2 4.9-4.9 4.9z" fill="#ef5350"/></g></g></g></g><g><path d="m255.9 267.7c-2.7 0-4.9-2.2-4.9-4.9v-31.8c0-2.7 2.2-4.9 4.9-4.9s4.9 2.2 4.9 4.9v31.8c0 2.7-2.2 4.9-4.9 4.9z" fill="#ef5350"/></g><g><path d="m256 297.8c-1.1 0-2.1-.1-3.2-.3-10.8-1.8-18.2-12-16.4-22.9 1.8-10.9 12-18.3 22.8-16.5 5.2.8 9.8 3.7 12.9 8s4.3 9.6 3.5 14.8c-.9 5.3-3.7 9.9-8 13-3.5 2.6-7.5 3.9-11.6 3.9zm-10-21.5c-.9 5.5 2.8 10.8 8.3 11.6 2.6.4 5.3-.2 7.5-1.8s3.6-3.9 4.1-6.6c.4-2.7-.2-5.4-1.8-7.6s-3.9-3.6-6.5-4.1c-5.5-.8-10.7 2.9-11.6 8.5z" fill="#ef5350"/></g><g><g><g><path d="m256 235.9c-12.7 0-24.2-10.7-32.5-30.1-7.7-18.1-12-42-12-67.4s4.3-49.3 12-67.4c8.3-19.3 19.8-30 32.5-30s24.2 10.7 32.5 30.1c7.7 18.1 12 42 12 67.4s-4.3 49.3-12 67.4c-8.3 19.3-19.8 30-32.5 30zm0-185.1c-8.4 0-17 8.8-23.6 24.1-7.2 16.9-11.2 39.4-11.2 63.5s4 46.6 11.2 63.5c6.6 15.3 15.2 24.1 23.6 24.1s17-8.8 23.6-24.1c7.2-16.9 11.2-39.4 11.2-63.5s-4-46.6-11.2-63.5c-6.6-15.3-15.2-24.1-23.6-24.1z" fill="#ef5350"/></g><g><g><path d="m256 235.9c-53.7 0-97.4-43.7-97.4-97.4s43.7-97.4 97.4-97.4 97.4 43.7 97.4 97.4-43.7 97.4-97.4 97.4zm0-185.1c-48.3 0-87.7 39.3-87.7 87.7 0 48.3 39.3 87.7 87.7 87.7s87.7-39.3 87.7-87.7-39.4-87.7-87.7-87.7z" fill="#ef5350"/></g><g><g><path d="m348.6 143.3h-185.2c-2.7 0-4.9-2.2-4.9-4.9s2.2-4.9 4.9-4.9h185.3c2.7 0 4.9 2.2 4.9 4.9s-2.3 4.9-5 4.9z" fill="#ef5350"/></g></g></g><g><path d="m256 101c-28.3 0-54.9-5.5-74.9-15.6-2.4-1.2-3.4-4.1-2.2-6.6 1.2-2.4 4.1-3.4 6.6-2.2 18.6 9.4 43.7 14.5 70.5 14.5s51.9-5.2 70.5-14.5c2.4-1.2 5.3-.2 6.6 2.2 1.2 2.4.2 5.3-2.2 6.6-20 10.1-46.6 15.6-74.9 15.6z" fill="#ef5350"/></g><g><path d="m328.7 200.7c-.7 0-1.5-.2-2.2-.5-18.6-9.4-43.7-14.5-70.5-14.5s-51.9 5.2-70.5 14.5c-2.4 1.2-5.3.2-6.6-2.2-1.2-2.4-.2-5.3 2.2-6.6 20-10 46.6-15.6 74.9-15.6s54.9 5.5 74.9 15.6c2.4 1.2 3.4 4.1 2.2 6.6-.9 1.7-2.6 2.7-4.4 2.7z" fill="#ef5350"/></g></g></g></g></svg>