<svg height="512pt" viewBox="-33 0 512 512.00055" width="512pt" xmlns="http://www.w3.org/2000/svg" id="fi_1691685"><path d="m430.386719 60.550781c-56.261719 0-158.632813-11.457031-190.699219-53.679687-5.449219-8.5625-17.375-9.324219-23.886719-1.152344-37.753906 42.214844-140.363281 54.832031-200.800781 54.832031-8.285156 0-15 6.738281-15 15.054688v240.90625c0 108.503906 124.898438 174.785156 219.515625 195.394531 12.21875 2.65625 225.871094-51.464844 225.871094-195.394531v-240.90625c0-8.3125-6.714844-15.054688-15-15.054688zm-15 255.960938c0 113.074219-167.347657 158.921875-192.695313 165.207031-25.347656-6.285156-192.691406-52.132812-192.691406-165.207031v-226.019531c115.832031-2.675782 173.597656-36.039063 196.5625-54.125 46.273438 40.925781 127.195312 52.726562 188.824219 54.128906zm0 0"></path><path d="m147.742188 195.558594v45.671875h-15.050782c-8.28125 0-15 6.742187-15 15.054687v120.453125c0 8.316407 6.71875 15.058594 15 15.058594h180c8.285156 0 15-6.742187 15-15.058594v-120.453125c0-8.3125-6.714844-15.054687-15-15.054687h-134.949218v-45.671875c0-23.53125 18.53125-44.667969 45.402343-44.667969 24.539063 0 44.5 20.035156 44.5 44.667969 0 8.3125 6.71875 15.054687 15 15.054687 8.285157 0 15-6.742187 15-15.054687 0-41.234375-33.417969-74.78125-74.5-74.78125-43.675781 0-75.402343 34.90625-75.402343 74.78125zm149.949218 166.125h-150v-90.339844h150zm0 0"></path><path d="m237.691406 316.511719c0-8.316407-6.714844-15.054688-15-15.054688-8.28125 0-15 6.738281-15 15.054688 0 8.316406 6.71875 15.058593 15 15.058593 8.285156 0 15-6.742187 15-15.058593zm0 0"></path></svg>