<svg viewBox="578.6626 377.6603 381.0303 111.6793" width="5000" height="1465.4910646213698" xmlns="http://www.w3.org/2000/svg" xmlns:xlink="http://www.w3.org/1999/xlink" preserveAspectRatio="none"><defs></defs><style>.a6izo4zJpcolor {fill:#0013F7;fill-opacity:1;}.aD6z1nYkhcolor {fill:#313131;fill-opacity:1;}.aIptOCySncolors-0 {fill:#0013F7;fill-opacity:1;}.companyName {fill:#4D4D4D;fill-opacity:1;}.icon3-str {stroke:#FFAE78;stroke-opacity:1;}.shapeStroke-str {stroke:#313131;stroke-opacity:1;}</style><defs>
      <filter
        x="-1000"
        y="-1000"
        width="5000"
        height="5000"
        id="global"
        filterUnits="userSpaceOnUse"
        primitiveUnits="userSpaceOnUse"
        color-interpolation-filters="sRGB">
        <feColorMatrix
                        type="matrix"
                        values="0.3333 0.3333 0.3333 0 0 0.3333 0.3333 0.3333 0 0 0.3333 0.3333 0.3333 0 0 0 0 0 1 0"/>
      </filter></defs><g filter="url(#global)"><g opacity="1" transform="rotate(0 578.6626 392.4232)">
<svg width="103.8798" height="82.1534" x="578.6626" y="392.4232" version="1.1" preserveAspectRatio="none" viewBox="0.013875067234039308 -0.0002839416265487671 62.98643112182617 49.812782287597656">
  <g transform="matrix(1 0 0 1 0 0)" class="aIptOCySncolors-0"><defs></defs><path style="" d="M 40.78125 0 C 40.080422 0.009328125 39.30025 0.343 39.0625 0.90625 C 39.0555 0.92125 39.04025 0.94475 39.03125 0.96875 C 39.03125 0.96975 39.003 0.99 39 1 C 38.55 2.215 34.625 13.0145 34.625 17.6875 C 34.625 20.2925 34.92325 22.12725 35.78125 24.40625 C 36.77125 27.04825 39.68825 28.8125 43.03125 28.8125 C 47.21825 28.8125 50.75 25.978 50.75 22.5 C 50.75 20.801 49.564 18.497 48.875 17.5 C 47.218 15.15 46.04675 12.92825 44.96875 10.90625 C 41.63875 4.65825 42.71875 2.14925 42.71875 2.03125 C 42.71875 1.26725 42.1955 0.39475 41.4375 0.09375 C 41.248 0.01875 41.014859 -0.003109375 40.78125 0 z M 39.84375 7.84375 C 40.31075 9.12775 40.967 10.6075 41.875 12.3125 C 43.011 14.4445 44.4665 16.77975 46.1875 19.21875 C 46.9395 20.30775 47.625 21.866 47.625 22.5 C 47.625 24.293 45.52025 25.8125 43.03125 25.8125 C 40.96525 25.8125 39.13875 24.79975 38.59375 23.34375 C 37.85775 21.38675 37.625 19.9515 37.625 17.6875 C 37.625 15.5765 38.68275 11.53975 39.84375 7.84375 z M 61.5625 17.9375 C 61.081299 17.92335 60.584375 18.14125 60.28125 18.5625 C 60.25125 18.6045 57.196 22.83575 52.125 25.59375 C 51.398 25.98975 51.103 26.897 51.5 27.625 C 51.771 28.125 52.31275 28.4375 52.84375 28.4375 C 53.08575 28.4375 53.30325 28.374 53.53125 28.25 C 59.19825 25.167 62.57675 20.5085 62.71875 20.3125 C 63.20075 19.6395 63.048 18.70175 62.375 18.21875 C 62.123 18.037625 61.851221 17.94599 61.5625 17.9375 z M 15.21875 17.96875 C 6.1685325 18.168778 0.5228125 23.880156 0.4375 23.96875 C -0.1355 24.56275 -0.12525 25.51775 0.46875 26.09375 C 1.06175 26.66875 2.01475 26.6555 2.59375 26.0625 C 3.05175 25.5915 14.0325 14.64675 30.1875 26.21875 C 30.6535 26.55275 31.1025 26.86325 31.5625 27.15625 C 31.8125 27.31625 32.099 27.40625 32.375 27.40625 C 32.87 27.40625 33.339 27.16775 33.625 26.71875 C 34.07 26.02075 33.8855 25.10125 33.1875 24.65625 C 32.7725 24.39125 32.32825 24.08325 31.90625 23.78125 C 25.611156 19.272281 19.95934 17.863973 15.21875 17.96875 z M 61.25 27.40625 C 60.871125 27.468 60.52375 27.69425 60.28125 28.03125 C 59.78625 28.71925 47.97425 44.758 31.90625 33.25 C 13.59325 20.133 0.5675 33.27125 0.4375 33.40625 C -0.1365 34.00225 -0.12825 34.95625 0.46875 35.53125 C 1.06475 36.10625 2.01775 36.097 2.59375 35.5 C 3.04875 35.027 13.9525 24.0605 30.1875 35.6875 C 34.9635 39.1085 39.4275 40.375 43.4375 40.375 C 54.9375 40.374 62.61575 29.92425 62.71875 29.78125 C 63.20175 29.10825 63.048 28.1705 62.375 27.6875 C 62.04 27.4465 61.628875 27.3445 61.25 27.40625 z M 61.25 36.84375 C 60.871125 36.905625 60.52375 37.13225 60.28125 37.46875 C 59.78625 38.15675 47.97425 54.1945 31.90625 42.6875 C 13.59325 29.5705 0.5675 42.70975 0.4375 42.84375 C -0.1365 43.44075 -0.12825 44.39375 0.46875 44.96875 C 1.06475 45.54375 2.01775 45.5345 2.59375 44.9375 C 3.04875 44.4645 13.9525 33.498 30.1875 45.125 C 34.9635 48.546 39.4275 49.8125 43.4375 49.8125 C 54.9375 49.8105 62.61575 39.36175 62.71875 39.21875 C 63.20175 38.54675 63.048 37.608 62.375 37.125 C 62.04 36.884 61.628875 36.781875 61.25 36.84375 z " fill-rule="evenodd"></path></g>
</svg>
</g><g opacity="1" transform="rotate(0 778.24 466.8534)">
<svg width="181.4529" height="15.4803" x="778.24" y="466.8534" version="1.1" preserveAspectRatio="none" viewBox="3.76 -30.88 456.20000000000005 38.92">
  <g transform="matrix(1 0 0 1 0 0)" class="a6izo4zJpcolor"><path id="id-6izo4zJp18" d="M3.76 0L3.76-28L16-28Q20.48-28 23.96-26.26Q27.44-24.52 29.36-21.34Q31.28-18.16 31.28-14L31.28-14Q31.28-9.84 29.36-6.66Q27.44-3.48 23.96-1.74Q20.48 0 16 0L16 0L3.76 0ZM8.96-4.40L15.76-4.40Q18.84-4.40 21.18-5.58Q23.52-6.76 24.78-8.94Q26.04-11.12 26.04-14L26.04-14Q26.04-16.88 24.78-19.06Q23.52-21.24 21.18-22.42Q18.84-23.60 15.76-23.60L15.76-23.60L8.96-23.60L8.96-4.40Z M45.08-18.24Q47.24-21.60 52.68-21.60L52.68-21.60L52.68-16.84Q52.04-16.96 51.52-16.96L51.52-16.96Q48.60-16.96 46.96-15.26Q45.32-13.56 45.32-10.36L45.32-10.36L45.32 0L40.32 0L40.32-21.36L45.08-21.36L45.08-18.24Z M68.96-21.60Q73.68-21.60 76.18-19.34Q78.68-17.08 78.68-12.52L78.68-12.52L78.68 0L73.96 0L73.96-2.60Q73.04-1.20 71.34-0.46Q69.64 0.28 67.24 0.28L67.24 0.28Q64.84 0.28 63.04-0.54Q61.24-1.36 60.26-2.82Q59.28-4.28 59.28-6.12L59.28-6.12Q59.28-9 61.42-10.74Q63.56-12.48 68.16-12.48L68.16-12.48L73.68-12.48L73.68-12.80Q73.68-15.04 72.34-16.24Q71-17.44 68.36-17.44L68.36-17.44Q66.56-17.44 64.82-16.88Q63.08-16.32 61.88-15.32L61.88-15.32L59.92-18.96Q61.60-20.24 63.96-20.92Q66.32-21.60 68.96-21.60L68.96-21.60ZM68.28-3.36Q70.16-3.36 71.62-4.22Q73.08-5.08 73.68-6.68L73.68-6.68L73.68-9.16L68.52-9.16Q64.20-9.16 64.20-6.32L64.20-6.32Q64.20-4.96 65.28-4.16Q66.36-3.36 68.28-3.36L68.28-3.36Z M89.08 0L89.08-21.36L94.08-21.36L94.08 0L89.08 0ZM91.60-24.88Q90.24-24.88 89.32-25.74Q88.40-26.60 88.40-27.88L88.40-27.88Q88.40-29.16 89.32-30.02Q90.24-30.88 91.60-30.88L91.60-30.88Q92.96-30.88 93.88-30.06Q94.80-29.24 94.80-28L94.80-28Q94.80-26.68 93.90-25.78Q93.00-24.88 91.60-24.88L91.60-24.88Z M116.76-21.60Q120.80-21.60 123.24-19.24Q125.68-16.88 125.68-12.24L125.68-12.24L125.68 0L120.68 0L120.68-11.60Q120.68-14.40 119.36-15.82Q118.04-17.24 115.60-17.24L115.60-17.24Q112.84-17.24 111.24-15.58Q109.64-13.92 109.64-10.80L109.64-10.80L109.64 0L104.64 0L104.64-21.36L109.40-21.36L109.40-18.60Q110.64-20.08 112.52-20.84Q114.40-21.60 116.76-21.60L116.76-21.60Z M144.20-21.60Q148.92-21.60 151.42-19.34Q153.92-17.08 153.92-12.52L153.92-12.52L153.92 0L149.20 0L149.20-2.60Q148.28-1.20 146.58-0.46Q144.88 0.28 142.48 0.28L142.48 0.28Q140.08 0.28 138.28-0.54Q136.48-1.36 135.50-2.82Q134.52-4.28 134.52-6.12L134.52-6.12Q134.52-9 136.66-10.74Q138.80-12.48 143.40-12.48L143.40-12.48L148.92-12.48L148.92-12.80Q148.92-15.04 147.58-16.24Q146.24-17.44 143.60-17.44L143.60-17.44Q141.80-17.44 140.06-16.88Q138.32-16.32 137.12-15.32L137.12-15.32L135.16-18.96Q136.84-20.24 139.20-20.92Q141.56-21.60 144.20-21.60L144.20-21.60ZM143.52-3.36Q145.40-3.36 146.86-4.22Q148.32-5.08 148.92-6.68L148.92-6.68L148.92-9.16L143.76-9.16Q139.44-9.16 139.44-6.32L139.44-6.32Q139.44-4.96 140.52-4.16Q141.60-3.36 143.52-3.36L143.52-3.36Z M180.96-21.36L185.72-21.36L185.72-3.24Q185.72 8.04 174.20 8.04L174.20 8.04Q171.12 8.04 168.36 7.26Q165.60 6.48 163.80 5L163.80 5L166.04 1.24Q167.44 2.40 169.58 3.10Q171.72 3.80 173.92 3.80L173.92 3.80Q177.44 3.80 179.08 2.20Q180.72 0.60 180.72-2.68L180.72-2.68L180.72-3.80Q179.44-2.40 177.60-1.68Q175.76-0.96 173.56-0.96L173.56-0.96Q170.52-0.96 168.06-2.26Q165.60-3.56 164.18-5.92Q162.76-8.28 162.76-11.32L162.76-11.32Q162.76-14.36 164.18-16.70Q165.60-19.04 168.06-20.32Q170.52-21.60 173.56-21.60L173.56-21.60Q175.88-21.60 177.78-20.84Q179.68-20.08 180.96-18.52L180.96-18.52L180.96-21.36ZM174.32-5.20Q177.16-5.20 178.98-6.90Q180.80-8.60 180.80-11.32L180.80-11.32Q180.80-14 178.98-15.68Q177.16-17.36 174.32-17.36L174.32-17.36Q171.44-17.36 169.62-15.68Q167.80-14 167.80-11.32L167.80-11.32Q167.80-8.60 169.62-6.90Q171.44-5.20 174.32-5.20L174.32-5.20Z M216.36-10.56Q216.36-10.04 216.28-9.08L216.28-9.08L199.52-9.08Q199.96-6.72 201.82-5.34Q203.68-3.96 206.44-3.96L206.44-3.96Q209.96-3.96 212.24-6.28L212.24-6.28L214.92-3.20Q213.48-1.48 211.28-0.60Q209.08 0.28 206.32 0.28L206.32 0.28Q202.80 0.28 200.12-1.12Q197.44-2.52 195.98-5.02Q194.52-7.52 194.52-10.68L194.52-10.68Q194.52-13.80 195.94-16.30Q197.36-18.80 199.88-20.20Q202.40-21.60 205.56-21.60L205.56-21.60Q208.68-21.60 211.14-20.22Q213.60-18.84 214.98-16.34Q216.36-13.84 216.36-10.56L216.36-10.56ZM205.56-17.60Q203.16-17.60 201.50-16.18Q199.84-14.76 199.48-12.40L199.48-12.40L211.60-12.40Q211.28-14.72 209.64-16.16Q208-17.60 205.56-17.60L205.56-17.60Z M249.36 0.40Q246.12 0.40 243.10-0.52Q240.08-1.44 238.32-2.96L238.32-2.96L240.12-7Q241.84-5.64 244.34-4.78Q246.84-3.92 249.36-3.92L249.36-3.92Q252.48-3.92 254.02-4.92Q255.56-5.92 255.56-7.56L255.56-7.56Q255.56-8.76 254.70-9.54Q253.84-10.32 252.52-10.76Q251.20-11.20 248.92-11.76L248.92-11.76Q245.72-12.52 243.74-13.28Q241.76-14.04 240.34-15.66Q238.92-17.28 238.92-20.04L238.92-20.04Q238.92-22.36 240.18-24.26Q241.44-26.16 243.98-27.28Q246.52-28.40 250.20-28.40L250.20-28.40Q252.76-28.40 255.24-27.76Q257.72-27.12 259.52-25.92L259.52-25.92L257.88-21.88Q256.04-22.96 254.04-23.52Q252.04-24.08 250.16-24.08L250.16-24.08Q247.08-24.08 245.58-23.04Q244.08-22 244.08-20.28L244.08-20.28Q244.08-19.08 244.94-18.32Q245.80-17.56 247.12-17.12Q248.44-16.68 250.72-16.12L250.72-16.12Q253.84-15.40 255.84-14.62Q257.84-13.84 259.26-12.24Q260.68-10.64 260.68-7.92L260.68-7.92Q260.68-5.60 259.42-3.72Q258.16-1.84 255.60-0.72Q253.04 0.40 249.36 0.40L249.36 0.40Z M278.96 0.28Q275.72 0.28 273.12-1.12Q270.52-2.52 269.06-5.02Q267.60-7.52 267.60-10.68L267.60-10.68Q267.60-13.84 269.06-16.32Q270.52-18.80 273.12-20.20Q275.72-21.60 278.96-21.60L278.96-21.60Q282.24-21.60 284.84-20.20Q287.44-18.80 288.90-16.32Q290.36-13.84 290.36-10.68L290.36-10.68Q290.36-7.52 288.90-5.02Q287.44-2.52 284.84-1.12Q282.24 0.28 278.96 0.28L278.96 0.28ZM278.96-4Q281.72-4 283.52-5.84Q285.32-7.68 285.32-10.68L285.32-10.68Q285.32-13.68 283.52-15.52Q281.72-17.36 278.96-17.36L278.96-17.36Q276.20-17.36 274.42-15.52Q272.64-13.68 272.64-10.68L272.64-10.68Q272.64-7.68 274.42-5.84Q276.20-4 278.96-4L278.96-4Z M299.16 0L299.16-29.68L304.16-29.68L304.16 0L299.16 0Z M330.40-21.36L335.40-21.36L335.40 0L330.64 0L330.64-2.72Q329.44-1.28 327.64-0.50Q325.84 0.28 323.76 0.28L323.76 0.28Q319.48 0.28 317.02-2.10Q314.56-4.48 314.56-9.16L314.56-9.16L314.56-21.36L319.56-21.36L319.56-9.84Q319.56-6.96 320.86-5.54Q322.16-4.12 324.56-4.12L324.56-4.12Q327.24-4.12 328.82-5.78Q330.40-7.44 330.40-10.56L330.40-10.56L330.40-21.36Z M357.40-4.72L358.80-1.16Q357.92-0.44 356.66-0.08Q355.40 0.28 354 0.28L354 0.28Q350.48 0.28 348.56-1.56Q346.64-3.40 346.64-6.92L346.64-6.92L346.64-17.20L343.12-17.20L343.12-21.20L346.64-21.20L346.64-26.08L351.64-26.08L351.64-21.20L357.36-21.20L357.36-17.20L351.64-17.20L351.64-7.04Q351.64-5.48 352.40-4.66Q353.16-3.84 354.60-3.84L354.60-3.84Q356.28-3.84 357.40-4.72L357.40-4.72Z M366.92 0L366.92-21.36L371.92-21.36L371.92 0L366.92 0ZM369.44-24.88Q368.08-24.88 367.16-25.74Q366.24-26.60 366.24-27.88L366.24-27.88Q366.24-29.16 367.16-30.02Q368.08-30.88 369.44-30.88L369.44-30.88Q370.80-30.88 371.72-30.06Q372.64-29.24 372.64-28L372.64-28Q372.64-26.68 371.74-25.78Q370.84-24.88 369.44-24.88L369.44-24.88Z M392.08 0.28Q388.84 0.28 386.24-1.12Q383.64-2.52 382.18-5.02Q380.72-7.52 380.72-10.68L380.72-10.68Q380.72-13.84 382.18-16.32Q383.64-18.80 386.24-20.20Q388.84-21.60 392.08-21.60L392.08-21.60Q395.36-21.60 397.96-20.20Q400.56-18.80 402.02-16.32Q403.48-13.84 403.48-10.68L403.48-10.68Q403.48-7.52 402.02-5.02Q400.56-2.52 397.96-1.12Q395.36 0.28 392.08 0.28L392.08 0.28ZM392.08-4Q394.84-4 396.64-5.84Q398.44-7.68 398.44-10.68L398.44-10.68Q398.44-13.68 396.64-15.52Q394.84-17.36 392.08-17.36L392.08-17.36Q389.32-17.36 387.54-15.52Q385.76-13.68 385.76-10.68L385.76-10.68Q385.76-7.68 387.54-5.84Q389.32-4 392.08-4L392.08-4Z M424.40-21.60Q428.44-21.60 430.88-19.24Q433.32-16.88 433.32-12.24L433.32-12.24L433.32 0L428.32 0L428.32-11.60Q428.32-14.40 427-15.82Q425.68-17.24 423.24-17.24L423.24-17.24Q420.48-17.24 418.88-15.58Q417.28-13.92 417.28-10.80L417.28-10.80L417.28 0L412.28 0L412.28-21.36L417.04-21.36L417.04-18.60Q418.28-20.08 420.16-20.84Q422.04-21.60 424.40-21.60L424.40-21.60Z M450.28 0.28Q447.68 0.28 445.20-0.40Q442.72-1.08 441.24-2.12L441.24-2.12L443.16-5.92Q444.60-4.96 446.62-4.38Q448.64-3.80 450.60-3.80L450.60-3.80Q455.08-3.80 455.08-6.16L455.08-6.16Q455.08-7.28 453.94-7.72Q452.80-8.16 450.28-8.56L450.28-8.56Q447.64-8.96 445.98-9.48Q444.32-10 443.10-11.30Q441.88-12.60 441.88-14.92L441.88-14.92Q441.88-17.96 444.42-19.78Q446.96-21.60 451.28-21.60L451.28-21.60Q453.48-21.60 455.68-21.10Q457.88-20.60 459.28-19.76L459.28-19.76L457.36-15.96Q454.64-17.56 451.24-17.56L451.24-17.56Q449.04-17.56 447.90-16.90Q446.76-16.24 446.76-15.16L446.76-15.16Q446.76-13.96 447.98-13.46Q449.20-12.96 451.76-12.52L451.76-12.52Q454.32-12.12 455.96-11.60Q457.60-11.08 458.78-9.84Q459.96-8.60 459.96-6.32L459.96-6.32Q459.96-3.32 457.36-1.52Q454.76 0.28 450.28 0.28L450.28 0.28Z"/></g>
</svg>
</g><g opacity="1" transform="rotate(0 705.24 383.9232)">
<svg width="237.4314" height="99.1534" x="705.24" y="383.9232" version="1.1" preserveAspectRatio="none" viewBox="-5.7812 -41.0937 136.56240000000003 57.0313">
  <g transform="matrix(1 0 0 1 0 0)" class="aD6z1nYkhcolor"><path id="id-D6z1nYkh6" d="M31.91 9.30L31.91 9.30Q31.80 9.96 31.39 10.25Q30.98 10.55 30.63 11.09L30.63 11.09L30.47 11.09Q30.08 11.09 29.71 11.17Q29.34 11.25 28.95 11.37L28.95 11.37Q28.75 11.29 28.48 11.25Q28.20 11.21 28.13 10.98L28.13 10.98Q27.81 11.13 27.27 11.13L27.27 11.13Q26.37 11.13 25.57 10.63Q24.77 10.12 23.91 9.84L23.91 9.84Q23.67 9.38 23.34 9.00Q23.01 8.63 22.68 8.28Q22.34 7.93 22.03 7.54Q21.72 7.15 21.52 6.60L21.52 6.60Q21.45 6.37 21.33 6.33Q21.21 6.29 20.98 6.33L20.98 6.33Q21.02 5.90 20.88 5.59Q20.74 5.27 20.27 5.20L20.27 5.20Q20.27 4.69 20.12 4.34Q19.96 3.98 19.75 3.73Q19.53 3.48 19.28 3.20Q19.02 2.93 18.87 2.54L18.87 2.54Q18.52 2.46 18.18 2.44Q17.85 2.42 17.46 2.42L17.46 2.42Q15.59 2.42 13.83 3.13L13.83 3.13Q13.63 3.20 13.42 3.32Q13.20 3.44 13.01 3.52L13.01 3.52Q12.93 3.52 12.87 3.54Q12.81 3.55 12.73 3.55L12.73 3.55Q12.46 3.55 12.23 3.46Q11.99 3.36 11.72 3.36L11.72 3.36Q11.60 3.36 11.46 3.42Q11.33 3.48 11.21 3.52L11.21 3.52Q10.63 3.71 10.12 3.75L10.12 3.75Q8.52 4.06 6.74 4.22Q4.96 4.38 3.48 5.04L3.48 5.04Q3.16 5.20 3.09 5.53Q3.01 5.86 3.05 6.17L3.05 6.17Q2.62 6.48 2.40 6.99Q2.19 7.50 2.01 8.07Q1.84 8.63 1.64 9.18Q1.45 9.73 1.09 10.12L1.09 10.12Q1.21 10.35 1.21 10.63L1.21 10.63Q1.21 11.21 0.82 11.80Q0.43 12.38 0.23 12.93L0.23 12.93Q0.04 13.48-0.08 14.00Q-0.20 14.53-0.43 14.96Q-0.66 15.39-1.07 15.66Q-1.48 15.94-2.23 15.94L-2.23 15.94Q-2.93 15.94-3.44 15.66Q-3.95 15.39-4.26 14.96Q-4.57 14.53-4.77 13.95Q-4.96 13.36-5.08 12.77L-5.08 12.77Q-4.65 11.91-4.26 11.29Q-3.87 10.66-3.67 9.69L-3.67 9.69Q-2.97 9.18-2.64 8.46Q-2.30 7.73-2.27 6.88L-2.27 6.88Q-1.84 6.60-1.66 6.15Q-1.48 5.70-1.45 5.20L-1.45 5.20Q-2.38 5.12-3.42 5.04Q-4.45 4.96-5.35 4.65L-5.35 4.65Q-5.35 4.57-5.33 4.49Q-5.31 4.41-5.31 4.34L-5.31 4.34Q-5.31 3.83-5.55 3.42Q-5.78 3.01-5.78 2.54L-5.78 2.54L-5.78 2.23Q-5.47 1.91-5.21 1.58Q-4.96 1.25-4.69 0.98Q-4.41 0.70-4.06 0.53Q-3.71 0.35-3.16 0.35L-3.16 0.35Q-2.42 0.35-1.72 0.45Q-1.02 0.55-0.27 0.55L-0.27 0.55Q0.23 0.55 0.78 0.43L0.78 0.43Q1.64-1.33 2.30-3.14Q2.97-4.96 3.32-6.84L3.32-6.84Q3.59-7.23 3.83-7.75Q4.06-8.28 4.20-8.87Q4.34-9.45 4.39-10.02Q4.45-10.59 4.45-11.05L4.45-11.05Q4.88-11.56 5.06-12.30Q5.23-13.05 5.35-13.85Q5.47-14.65 5.61-15.43Q5.74-16.21 6.13-16.80L6.13-16.80L6.13-17.15Q6.17-17.73 6.02-18.20L6.02-18.20Q6.21-18.28 6.25-18.55Q6.29-18.83 6.41-19.02L6.41-19.02Q6.45-20.82 6.80-22.56Q7.15-24.30 7.38-26.05L7.38-26.05L7.38-26.17Q7.38-26.37 7.25-26.39Q7.11-26.41 7.11-26.60L7.11-26.60Q7.11-26.95 7.21-27.54Q7.30-28.13 7.34-28.52L7.34-28.52Q7.58-30.63 7.58-32.70L7.58-32.70Q7.58-34.45 7.46-36.17Q7.34-37.89 7.23-39.65L7.23-39.65L7.54-40.12Q7.70-40.35 7.81-40.59L7.81-40.59Q8.20-40.74 8.46-40.92Q8.71-41.09 9.14-41.09L9.14-41.09Q9.26-41.09 9.34-41.07Q9.41-41.05 9.49-41.05L9.49-41.05Q9.73-40.90 9.86-40.63Q10-40.35 10.14-40.12Q10.27-39.88 10.51-39.73Q10.74-39.57 11.17-39.65L11.17-39.65Q11.37-38.55 12.27-38.52L12.27-38.52Q12.46-37.97 12.75-37.42Q13.05-36.88 13.55-36.56L13.55-36.56Q13.52-36.41 13.52-36.13L13.52-36.13Q13.52-35.59 13.77-35.08Q14.02-34.57 14.41-34.14L14.41-34.14L14.41-34.06Q14.41-33.63 14.10-33.48L14.10-33.48Q14.45-33.09 14.61-32.54Q14.77-31.99 14.88-31.43Q15-30.86 15.18-30.35Q15.35-29.84 15.78-29.57L15.78-29.57L15.78-29.45Q15.78-29.26 15.64-29.22Q15.51-29.18 15.51-28.98L15.51-28.98Q16.21-27.70 16.48-26.17Q16.76-24.65 17.19-23.24L17.19-23.24Q17.34-23.09 17.56-23.05Q17.77-23.01 17.89-22.85L17.89-22.85Q17.66-22.70 17.66-22.30Q17.66-21.91 17.46-21.72L17.46-21.72Q17.77-21.45 17.75-20.92Q17.73-20.39 18.05-20.16L18.05-20.16L18.05-20Q18.05-19.84 17.97-19.75Q17.89-19.65 17.89-19.49L17.89-19.49L17.89-19.34Q18.20-17.97 18.38-16.60Q18.55-15.23 18.75-13.87Q18.95-12.50 19.18-11.15Q19.41-9.80 19.84-8.52L19.84-8.52Q19.88-8.48 19.88-8.40L19.88-8.40Q19.88-8.20 19.73-8.18Q19.57-8.16 19.57-7.97L19.57-7.97Q19.57-7.77 19.71-7.52Q19.84-7.27 20-7.11L20-7.11Q19.96-6.95 19.96-6.64L19.96-6.64Q19.96-6.05 20.18-5.51Q20.39-4.96 20.64-4.43Q20.90-3.91 21.09-3.32Q21.29-2.73 21.25-2.07L21.25-2.07Q21.48-1.72 21.86-1.48Q22.23-1.25 22.62-1.05Q23.01-0.86 23.34-0.59Q23.67-0.31 23.79 0.16L23.79 0.16Q23.48 0.43 23.36 0.84Q23.24 1.25 22.93 1.56L22.93 1.56Q23.20 2.23 23.57 2.79Q23.95 3.36 24.34 3.91L24.34 3.91L25.16 5Q25.59 5.55 25.90 6.17L25.90 6.17Q26.33 6.17 26.52 6.41Q26.72 6.64 27.15 6.60L27.15 6.60Q27.30 6.91 27.27 7.30L27.27 7.30Q28.05 7.03 28.83 7.03L28.83 7.03Q29.26 7.03 29.63 7.07Q30 7.11 30.39 7.11L30.39 7.11Q30.86 7.11 31.21 6.99L31.21 6.99Q31.37 7.23 31.45 7.52Q31.52 7.81 31.56 8.13L31.56 8.13L31.68 8.75Q31.76 9.06 31.91 9.30ZM17.19-1.52L17.19-1.52Q16.64-4.22 16.07-6.89Q15.51-9.57 15.08-12.30L15.08-12.30Q14.84-13.75 14.73-15.20Q14.61-16.64 14.43-18.07Q14.26-19.49 13.96-20.90Q13.67-22.30 13.13-23.67L13.13-23.67L13.13-23.75Q13.13-23.87 13.20-23.95Q13.28-24.02 13.28-24.22L13.28-24.22L13.28-24.38Q12.77-24.73 12.58-25.37Q12.38-26.02 12.25-26.74Q12.11-27.46 11.89-28.14Q11.68-28.83 11.17-29.30L11.17-29.30Q10.98-27.03 10.76-24.79Q10.55-22.54 10.47-20.27L10.47-20.27Q10.08-20.04 9.96-19.49Q9.84-18.95 9.84-18.52L9.84-18.52Q9.84-18.20 9.88-17.87Q9.92-17.54 10.04-17.19L10.04-17.19Q9.34-15.43 9.02-13.57Q8.71-11.72 8.32-9.88L8.32-9.88Q8.28-9.77 8.18-9.36Q8.09-8.95 7.97-8.52Q7.85-8.09 7.77-7.75Q7.70-7.42 7.70-7.38L7.70-7.38Q7.66-7.11 7.68-6.84Q7.70-6.56 7.70-6.29L7.70-6.29L7.11-5.70Q6.95-4.22 6.54-2.83Q6.13-1.45 5.70 0L5.70 0Q5.98 0.04 6.23 0.06Q6.48 0.08 6.76 0.08L6.76 0.08Q8.01 0.08 9.28-0.10Q10.55-0.27 11.80-0.43L11.80-0.43Q12.23-0.51 12.70-0.57Q13.16-0.63 13.59-0.63L13.59-0.63Q13.79-0.66 14.06-0.64Q14.34-0.63 14.53-0.66L14.53-0.66Q14.84-0.74 14.94-0.92Q15.04-1.09 15.35-1.13L15.35-1.13Q15.59-1.02 15.90-1.02L15.90-1.02Q16.25-1.02 16.56-1.17Q16.88-1.33 17.19-1.52Z M47.66-27.81L47.66-27.81Q47.66-27.15 47.60-26.54Q47.54-25.94 47.34-25.27L47.34-25.27Q46.99-25 46.72-24.61L46.72-24.61L46.17-23.87Q45.90-23.52 45.59-23.18Q45.27-22.85 44.80-22.66L44.80-22.66Q44.41-20.94 43.85-19.36Q43.28-17.77 43.01-16.05L43.01-16.05Q42.54-15.20 42.27-14.18Q41.99-13.16 41.70-12.13Q41.41-11.09 41.05-10.16Q40.70-9.22 40.08-8.48L40.08-8.48Q39.77-7.54 39.45-6.46Q39.14-5.39 38.40-4.69L38.40-4.69Q38.44-4.61 38.44-4.45L38.44-4.45Q38.44-3.98 38.20-3.57Q37.97-3.16 37.97-2.73L37.97-2.73Q37.34-2.27 36.78-1.64Q36.21-1.02 35.63-0.39Q35.04 0.23 34.38 0.70Q33.71 1.17 32.93 1.33L32.93 1.33Q32.38 0.94 31.91 0.45Q31.45-0.04 30.82-0.35L30.82-0.35Q30.51-2.11 30.45-3.81Q30.39-5.51 30.16-7.19L30.16-7.19Q30-8.16 29.67-9.06Q29.34-9.96 29.34-10.90L29.34-10.90Q29.34-11.09 29.36-11.31Q29.38-11.52 29.41-11.72L29.41-11.72Q29.02-12.15 28.91-12.79Q28.79-13.44 28.71-14.12Q28.63-14.80 28.50-15.47Q28.36-16.13 28.01-16.60L28.01-16.60Q28.16-16.76 28.16-17.03L28.16-17.03Q28.16-17.23 28.11-17.42Q28.05-17.62 28.05-17.81L28.05-17.81Q28.05-17.97 28.16-18.16L28.16-18.16Q27.85-18.55 27.75-18.89Q27.66-19.22 27.62-19.55Q27.58-19.88 27.56-20.23Q27.54-20.59 27.46-20.98L27.46-20.98Q27.38-21.25 27.21-21.39Q27.03-21.52 27.03-21.60L27.03-21.60Q27.03-21.80 27.19-21.91L27.19-21.91Q26.64-22.70 26.29-23.55Q25.94-24.41 25.51-25.27L25.51-25.27Q25.55-25.70 25.82-25.94Q26.09-26.17 26.21-26.56L26.21-26.56L27.46-26.56Q29.18-23.20 30.10-19.59Q31.02-15.98 31.72-12.30L31.72-12.30Q31.91-11.25 32.09-10.20Q32.27-9.14 32.50-8.05L32.50-8.05Q32.58-7.81 32.73-7.54Q32.89-7.27 32.89-6.99L32.89-6.99Q32.89-6.76 32.77-6.52L32.77-6.52Q33.01-6.37 33.14-6.09Q33.28-5.82 33.38-5.53Q33.48-5.23 33.55-4.94Q33.63-4.65 33.79-4.41L33.79-4.41Q34.26-4.45 34.61-4.84Q34.96-5.23 35.25-5.76Q35.55-6.29 35.80-6.82Q36.05-7.34 36.41-7.66L36.41-7.66Q36.45-8.09 36.58-8.50Q36.72-8.91 36.72-9.34L36.72-9.34Q37.11-10 37.42-10.59Q37.73-11.17 37.81-11.99L37.81-11.99Q38.01-12.15 38.05-12.25Q38.09-12.34 38.40-12.27L38.40-12.27Q38.40-13.32 38.73-14.32Q39.06-15.31 39.65-16.21L39.65-16.21Q39.73-17.11 40.02-18.03Q40.31-18.95 40.70-19.84L40.70-19.84Q40.82-20.12 41.02-20.49Q41.21-20.86 41.21-21.17L41.21-21.17Q41.21-21.33 41.15-21.46Q41.09-21.60 41.09-21.76L41.09-21.76Q41.09-22.07 41.33-22.30Q41.56-22.54 41.76-22.77L41.76-22.77Q41.76-23.67 41.95-24.57Q42.15-25.47 42.73-26.13L42.73-26.13Q42.93-27.46 43.24-28.73Q43.55-30 44.14-31.17L44.14-31.17L45.55-31.17Q45.55-31.91 46.21-31.91L46.21-31.91Q46.60-31.91 47.07-31.72L47.07-31.72Q47.38-30.86 47.52-29.79Q47.66-28.71 47.66-27.81Z M68.87-10.04L68.87-10.04Q68.87-9.61 68.55-9.39Q68.24-9.18 68.24-8.83L68.24-8.83Q68.24-8.67 68.40-8.44L68.40-8.44Q67.85-8.44 67.66-8.09Q67.46-7.73 67.27-7.30L67.27-7.30L66.76-7.30Q66.56-7.30 66.45-7.23Q66.33-7.15 66.23-7.01Q66.13-6.88 65.98-6.60L65.98-6.60Q65.23-6.45 64.55-6.11Q63.87-5.78 63.22-5.41Q62.58-5.04 61.91-4.67Q61.25-4.30 60.55-4.06L60.55-4.06Q60.20-3.48 59.53-3.13L59.53-3.13L59.41-3.13Q59.22-3.09 59.08-3.18Q58.95-3.28 58.75-3.28L58.75-3.28Q58.63-3.28 58.59-3.24L58.59-3.24Q57.42-2.46 55.98-2.46L55.98-2.46Q55.59-2.46 55.23-2.52Q54.88-2.58 54.49-2.58L54.49-2.58Q54.38-2.58 54.34-2.50L54.34-2.50L54.26-2.34Q54.22-2.27 54.16-2.19Q54.10-2.11 53.87-2.11L53.87-2.11Q53.44-2.11 53.01-2.23Q52.58-2.34 52.11-2.27L52.11-2.27Q51.21-2.77 50.70-3.24Q50.20-3.71 49.77-4.65L49.77-4.65Q49.57-5.08 49.24-5.47Q48.91-5.86 48.75-6.33L48.75-6.33Q48.71-6.48 48.63-6.89Q48.55-7.30 48.48-7.77Q48.40-8.24 48.34-8.67Q48.28-9.10 48.28-9.26L48.28-9.26Q48.28-9.73 48.34-10.18Q48.40-10.63 48.48-11.09L48.48-11.09Q48.71-12.58 48.81-14.08Q48.91-15.59 49.45-16.99L49.45-16.99Q49.38-17.42 49.38-17.81L49.38-17.81L49.38-18.67Q49.38-19.41 49.18-19.92L49.18-19.92Q49.49-20.43 49.49-21.05L49.49-21.05Q49.49-21.76 48.91-21.88L48.91-21.88L48.91-21.99Q48.91-22.81 48.36-23.28L48.36-23.28Q48.36-24.65 49.04-25.33Q49.73-26.02 50.86-26.52L50.86-26.52Q51.02-26.76 50.98-26.91L50.98-26.91Q51.25-26.84 51.48-26.76Q51.72-26.68 51.95-26.68L51.95-26.68Q52.34-26.68 52.66-26.80L52.66-26.80Q52.77-26.33 53.26-26.23Q53.75-26.13 54.06-25.98L54.06-25.98L54.06-25.47Q54.06-24.26 54.65-23.16L54.65-23.16Q54.49-22.85 54.45-22.50Q54.41-22.15 54.41-21.84L54.41-21.84Q54.41-21.37 54.45-20.90Q54.49-20.43 54.49-20L54.49-20Q54.49-19.53 54.39-19.06Q54.30-18.59 53.95-18.24L53.95-18.24Q53.91-17.73 53.89-17.09Q53.87-16.45 53.81-15.78Q53.75-15.12 53.59-14.49Q53.44-13.87 53.13-13.48L53.13-13.48Q53.09-12.89 53.07-12.29Q53.05-11.68 53.05-11.13L53.05-11.13Q53.05-10.27 53.14-9.10Q53.24-7.93 53.67-7.15L53.67-7.15Q53.87-6.84 54.43-6.68Q55-6.52 55.35-6.52L55.35-6.52Q55.78-6.52 56.23-6.66Q56.68-6.80 56.88-7.15L56.88-7.15Q57.11-7.11 57.19-6.91Q57.27-6.72 57.46-6.60L57.46-6.60Q59.69-7.54 61.91-8.40Q64.14-9.26 66.29-10.39L66.29-10.39Q66.60-10.23 66.95-10.23L66.95-10.23Q67.34-10.23 67.73-10.31Q68.13-10.39 68.52-10.39L68.52-10.39L68.79-10.39Q68.87-10.16 68.87-10.04Z M97.66-2.85L97.66-2.85Q97.54-2.30 97.17-1.97Q96.80-1.64 96.29-1.45Q95.78-1.25 95.25-1.19Q94.73-1.13 94.30-1.13L94.30-1.13Q94.10-1.13 93.93-1.15Q93.75-1.17 93.55-1.17L93.55-1.17Q93.36-1.17 93.36-0.98Q93.36-0.78 93.16-0.70L93.16-0.70Q92.97-0.78 92.77-0.82Q92.58-0.86 92.38-0.86L92.38-0.86Q92.11-0.86 91.86-0.82Q91.60-0.78 91.37-0.78L91.37-0.78Q91.05-0.78 90.92-0.86Q90.78-0.94 90.68-1.04Q90.59-1.13 90.49-1.25Q90.39-1.37 90.20-1.45L90.20-1.45Q89.92-1.56 89.75-1.48Q89.57-1.41 89.22-1.72L89.22-1.72Q88.75-2.11 88.42-2.68Q88.09-3.24 87.77-3.87Q87.46-4.49 87.11-5.12Q86.76-5.74 86.29-6.21L86.29-6.21L85.98-6.21Q85.27-6.21 85-5.63L85-5.63Q84.80-5.74 84.61-5.92Q84.41-6.09 84.18-6.21L84.18-6.21Q83.28-5.94 82.30-5.74Q81.33-5.55 80.35-5.55L80.35-5.55L79.80-5.55Q79.57-5.55 79.30-5.63L79.30-5.63Q78.91-5.47 78.59-5.25Q78.28-5.04 77.89-5.04L77.89-5.04Q77.66-5.04 77.34-5.20L77.34-5.20Q77.11-5.20 77.13-5Q77.15-4.80 76.88-4.80L76.88-4.80L76.52-4.80Q75.98-4.80 75.45-4.77Q74.92-4.73 74.38-4.73L74.38-4.73Q73.63-4.73 72.85-4.92L72.85-4.92Q72.66-4.80 72.42-4.80L72.42-4.80Q72.27-4.73 72.19-4.55Q72.11-4.38 72.03-4.24Q71.95-4.10 71.82-4.00Q71.68-3.91 71.45-3.95L71.45-3.95Q71.37-3.48 71.05-3.20Q70.74-2.93 70.74-2.38L70.74-2.38Q70.31-2.15 70.04-1.80Q69.77-1.45 69.49-1.05Q69.22-0.66 68.93-0.31Q68.63 0.04 68.20 0.23L68.20 0.23Q68.01 0.47 68.09 0.98L68.09 0.98Q67.66 1.33 67.03 1.60Q66.41 1.88 65.86 1.88L65.86 1.88Q64.73 1.88 64.30 0.66L64.30 0.66Q64.30 0.27 64.36-0.18Q64.41-0.63 64.53-1.04Q64.65-1.45 64.88-1.78Q65.12-2.11 65.55-2.27L65.55-2.27Q65.55-2.62 65.31-2.75Q65.08-2.89 65.12-3.24L65.12-3.24Q66.17-3.75 66.95-4.57Q67.73-5.39 68.38-6.31Q69.02-7.23 69.69-8.16Q70.35-9.10 71.17-9.84L71.17-9.84L71.17-10.66Q72.34-11.91 72.70-13.48L72.70-13.48Q73.13-13.55 73.26-13.87Q73.40-14.18 73.40-14.61L73.40-14.61Q73.59-14.61 73.65-14.79Q73.71-14.96 73.98-14.88L73.98-14.88Q74.34-15.82 74.77-16.60Q75.20-17.38 75.63-18.18Q76.05-18.98 76.39-19.84Q76.72-20.70 76.88-21.76L76.88-21.76Q77.42-21.80 77.48-22.29Q77.54-22.77 77.62-23.16L77.62-23.16Q78.20-23.71 78.50-24.45Q78.79-25.20 79.02-26.00Q79.26-26.80 79.55-27.60Q79.84-28.40 80.39-29.02L80.39-29.02L80.39-29.14Q80.39-29.34 80.23-29.39Q80.08-29.45 80.08-29.65L80.08-29.65Q80.12-29.69 80.12-29.73L80.12-29.73Q80.59-29.92 80.82-30.37Q81.05-30.82 81.52-31.02L81.52-31.02Q82.34-30.35 82.97-30.21Q83.59-30.08 84.61-30L84.61-30Q85.12-29.45 85.18-28.69Q85.23-27.93 85.43-27.19L85.43-27.19Q85.74-25.94 86.11-24.75Q86.48-23.55 86.68-22.30L86.68-22.30Q86.80-21.56 87.11-20.90Q87.42-20.23 87.54-19.53L87.54-19.53Q87.62-18.98 87.54-18.30Q87.46-17.62 87.70-17.11L87.70-17.11L87.97-16.48Q88.16-16.05 88.30-15.59Q88.44-15.12 88.55-14.65L88.55-14.65Q88.87-13.48 89.12-12.13Q89.38-10.78 89.92-9.69L89.92-9.69Q90.12-9.30 90.53-9.14Q90.94-8.98 91.45-8.93Q91.95-8.87 92.44-8.89Q92.93-8.91 93.28-8.91L93.28-8.91L93.67-8.91Q93.91-8.91 94.14-8.83L94.14-8.83Q94.30-8.52 94.30-8.28L94.30-8.28Q94.30-7.81 93.98-7.54Q93.67-7.27 93.67-6.91L93.67-6.91Q93.67-6.72 93.83-6.48L93.83-6.48Q93.67-6.52 93.36-6.52L93.36-6.52Q92.46-6.52 91.60-6.21L91.60-6.21Q91.91-5.55 92.44-5.10Q92.97-4.65 93.55-4.26L93.55-4.26Q93.95-4.57 94.38-4.57L94.38-4.57Q94.84-4.57 95.25-4.36Q95.66-4.14 96.13-4.14L96.13-4.14Q96.48-4.14 96.64-4.26L96.64-4.26Q96.95-3.91 97.15-3.54Q97.34-3.16 97.66-2.85ZM85.43-9.10L85.43-9.10Q85.35-9.77 85.18-10.06Q85-10.35 84.88-10.78L84.88-10.78Q84.73-11.33 84.67-11.95Q84.61-12.58 84.49-13.16L84.49-13.16Q84.22-14.49 83.89-15.82Q83.55-17.15 83.05-18.40L83.05-18.40Q83.20-18.63 83.20-18.83L83.20-18.83L83.20-18.95Q82.85-19.34 82.70-19.90Q82.54-20.47 82.40-21.04Q82.27-21.60 82.05-22.09Q81.84-22.58 81.37-22.89L81.37-22.89Q81.25-22.66 81.25-22.34L81.25-22.34Q81.25-22.07 81.31-21.84Q81.37-21.60 81.37-21.33L81.37-21.33Q80.98-21.13 80.80-20.72Q80.63-20.31 80.23-20.08L80.23-20.08Q79.92-18.83 79.34-17.71Q78.75-16.60 78.11-15.51Q77.46-14.41 76.88-13.30Q76.29-12.19 75.94-10.98L75.94-10.98Q75.43-10.63 75.25-10.08Q75.08-9.53 75.08-8.98L75.08-8.98Q75.43-8.79 75.88-8.77Q76.33-8.75 76.76-8.75Q77.19-8.75 77.58-8.67Q77.97-8.59 78.28-8.28L78.28-8.28Q78.79-8.44 79.39-8.50Q80-8.55 80.39-8.83L80.39-8.83Q81.17-8.55 82.07-8.55L82.07-8.55Q82.54-8.55 82.99-8.63Q83.44-8.71 83.87-8.83L83.87-8.83Q84.22-8.75 84.41-8.57Q84.61-8.40 85-8.44L85-8.44Q85.20-8.59 85.23-8.77Q85.27-8.95 85.43-9.10Z M128.24-1.99L128.24-1.99Q128.24-1.68 127.97-1.48Q127.70-1.29 127.34-1.09L127.34-1.09L126.64-0.74Q126.29-0.59 126.17-0.31L126.17-0.31Q125.74-0.43 125.33-0.47Q124.92-0.51 124.53-0.51L124.53-0.51Q124.02-0.51 123.48-0.41Q122.93-0.31 122.62 0.12L122.62 0.12Q122.42 0.04 122.27 0.04L122.27 0.04L121.95 0.04Q121.37 0.04 120.76 0.14Q120.16 0.23 119.57 0.23L119.57 0.23Q119.26 0.23 118.96 0.20Q118.67 0.16 118.44-0.04L118.44-0.04Q118.09 0.08 117.70 0.08L117.70 0.08Q117.19 0.08 116.72-0.08Q116.25-0.23 115.80-0.45Q115.35-0.66 114.88-0.86Q114.41-1.05 113.95-1.17L113.95-1.17L113.67-1.72Q113.05-1.84 112.52-2.09Q111.99-2.34 111.48-2.66Q110.98-2.97 110.49-3.26Q110-3.55 109.49-3.67L109.49-3.67Q109.30-3.83 109.14-3.96Q108.98-4.10 108.91-4.38L108.91-4.38Q108.40-4.49 107.97-4.69L107.97-4.69L107.15-5.12Q106.76-5.35 106.27-5.53Q105.78-5.70 105.12-5.74L105.12-5.74Q104.88-6.09 104.45-6.41Q104.02-6.72 103.59-6.72L103.59-6.72Q103.32-6.72 103.16-6.60L103.16-6.60L103.16-6.41Q103.16-5.94 103.44-5.47Q103.71-5 104.14-4.80L104.14-4.80Q104.10-4.73 104.10-4.57L104.10-4.57Q104.10-4.34 104.20-4.10Q104.30-3.87 104.57-3.79L104.57-3.79Q104.41-3.36 104.18-2.91Q103.95-2.46 103.59-2.07Q103.24-1.68 102.83-1.43Q102.42-1.17 101.91-1.17L101.91-1.17Q101.76-1.09 101.70-0.94Q101.64-0.78 101.62-0.61Q101.60-0.43 101.54-0.27Q101.48-0.12 101.37-0.04L101.37-0.04Q101.21 0 100.94 0L100.94 0Q100.55 0 100.27-0.12Q100-0.23 99.69-0.43L99.69-0.43L99.69-0.59Q99.69-1.05 99.51-1.33Q99.34-1.60 99.12-1.86Q98.91-2.11 98.73-2.38Q98.55-2.66 98.55-3.13L98.55-3.13Q98.44-3.05 98.30-3.01Q98.16-2.97 98.13-2.85L98.13-2.85Q98.05-3.24 98.05-3.52L98.05-3.52Q98.05-4.30 98.30-5Q98.55-5.70 98.55-6.48L98.55-6.48L98.55-7.07Q98.55-7.97 98.52-8.83Q98.48-9.69 98.48-10.55L98.48-10.55Q98.48-11.29 98.52-12.01Q98.55-12.73 98.67-13.48L98.67-13.48Q99.10-16.05 99.39-18.61Q99.69-21.17 100.35-23.71L100.35-23.71Q100.31-23.91 100.25-24.10Q100.20-24.30 100.20-24.49L100.20-24.49Q100.20-24.65 100.23-24.69L100.23-24.69Q100.39-25.47 100.94-26.00Q101.48-26.52 102.34-26.52L102.34-26.52L102.46-26.52Q102.93-26.33 103.18-25.96Q103.44-25.59 103.98-25.66L103.98-25.66Q103.98-25.59 103.96-25.51Q103.95-25.43 103.95-25.35L103.95-25.35Q103.95-24.92 104.18-24.73Q104.41-24.53 104.73-24.30L104.73-24.30Q104.53-23.91 104.47-23.40Q104.41-22.89 104.38-22.38Q104.34-21.88 104.24-21.41Q104.14-20.94 103.87-20.63L103.87-20.63Q104.02-20.23 104.06-19.84Q104.10-19.45 104.10-19.02L104.10-19.02Q104.10-18.59 104.06-18.14Q104.02-17.70 104.02-17.23L104.02-17.23Q104.02-16.80 104.14-16.45L104.14-16.45Q105-16.45 105.12-17.27L105.12-17.27Q106.13-17.54 106.93-18.03Q107.73-18.52 108.48-19.06Q109.22-19.61 109.94-20.20Q110.66-20.78 111.56-21.21L111.56-21.21L111.56-21.29Q111.56-21.48 111.68-21.54Q111.80-21.60 111.72-21.88L111.72-21.88Q112.30-22.07 112.71-22.40Q113.13-22.73 113.48-23.13L113.48-23.13L114.22-23.95Q114.61-24.38 115.08-24.69L115.08-24.69Q115.39-25.35 115.64-26.09Q115.90-26.84 116.33-27.46L116.33-27.46Q117.07-27.46 117.95-27.34Q118.83-27.23 119.45-26.80L119.45-26.80Q119.38-26.48 119.73-26.37L119.73-26.37Q119.30-24.73 118.44-23.42Q117.58-22.11 116.21-21.21L116.21-21.21Q116.02-20.78 115.70-20.47Q115.39-20.16 115.08-19.86Q114.77-19.57 114.45-19.26Q114.14-18.95 113.95-18.52L113.95-18.52Q113.48-18.44 113.14-18.24Q112.81-18.05 112.52-17.79Q112.23-17.54 111.89-17.32Q111.56-17.11 111.17-16.99L111.17-16.99Q110.86-16.60 110.45-16.33Q110.04-16.05 109.63-15.80Q109.22-15.55 108.87-15.25Q108.52-14.96 108.36-14.49L108.36-14.49L107.34-14.49Q106.91-13.75 106.23-13.26Q105.55-12.77 104.84-12.34L104.84-12.34Q104.96-11.88 105.27-11.58Q105.59-11.29 105.96-11.05Q106.33-10.82 106.70-10.57Q107.07-10.31 107.34-9.96L107.34-9.96Q108.98-9.34 110.51-8.54Q112.03-7.73 113.40-6.60L113.40-6.60Q113.48-6.64 113.59-6.64L113.59-6.64Q113.91-6.64 114.10-6.46Q114.30-6.29 114.65-6.33L114.65-6.33Q114.80-5.94 115.08-5.80Q115.35-5.66 115.64-5.59Q115.94-5.51 116.21-5.35Q116.48-5.20 116.60-4.80L116.60-4.80Q117.19-4.77 117.68-4.57Q118.16-4.38 118.55-3.95L118.55-3.95L119.02-3.95Q120.27-3.95 121.45-3.71Q122.62-3.48 123.83-3.48L123.83-3.48Q124.45-3.48 125.04-3.57Q125.63-3.67 126.17-3.95L126.17-3.95Q126.37-3.83 126.60-3.71Q126.84-3.59 127.11-3.59L127.11-3.59Q127.30-3.59 127.70-3.67L127.70-3.67Q127.73-3.24 127.99-2.85Q128.24-2.46 128.24-1.99Z M130.78-5.35L130.78-5.35Q130.59-5.04 130.31-4.79Q130.04-4.53 129.80-4.26L129.80-4.26Q129.53-4.14 129.20-4.14Q128.87-4.14 128.57-4.16Q128.28-4.18 128.03-4.16Q127.77-4.14 127.62-3.98L127.62-3.98Q127.30-4.06 127.15-4.28Q126.99-4.49 126.60-4.53L126.60-4.53Q126.45-4.57 126.29-4.53L126.29-4.53Q125.70-5.20 125.21-5.94Q124.73-6.68 124.30-7.34L124.30-7.34Q124.26-8.79 124.06-10.27L124.06-10.27Q124.02-10.63 123.95-10.98Q123.87-11.33 123.83-11.64L123.83-11.64Q123.83-12.03 123.89-12.40Q123.95-12.77 123.98-13.09L123.98-13.09Q124.14-14.22 124.34-15.31Q124.53-16.41 124.69-17.54L124.69-17.54Q124.84-18.55 124.84-19.67Q124.84-20.78 124.49-21.76L124.49-21.76L124.45-21.95Q124.53-22.27 124.63-22.48Q124.73-22.70 124.77-22.97L124.77-22.97Q124.84-23.40 124.57-23.59L124.57-23.59Q124.69-23.91 124.96-24.00Q125.23-24.10 125.27-24.45L125.27-24.45Q125.31-24.61 125.27-24.77L125.27-24.77Q125.59-24.88 125.92-24.98Q126.25-25.08 126.56-25L126.56-25Q127.07-24.92 127.46-24.67Q127.85-24.41 128.20-24.10L128.20-24.10Q128.83-22.23 128.71-20.14Q128.59-18.05 128.32-15.94Q128.05-13.83 127.97-11.82Q127.89-9.80 128.59-8.09L128.59-8.09L128.67-8.05Q128.87-8.01 128.98-8.18Q129.10-8.36 129.30-8.32L129.30-8.32Q129.45-8.24 129.49-8.24L129.49-8.24Q129.65-7.46 130-6.76Q130.35-6.05 130.78-5.35Z"/></g>
</svg>
</g><g opacity="1" transform="rotate(0 694.4425 377.6603)">
<svg width="3.3172" height="111.6793" x="694.4425" y="377.6603" version="1.1" preserveAspectRatio="none" viewBox="0 0 3.3172 111.6793">
  <rect x="0" y="0" width="3.3172" height="111.6793" class="companyName shapeStroke-str" style="stroke-width:0;" rx="0px" ry="0px" />
</svg>
</g></g></svg>