<svg clip-rule="evenodd" fill-rule="evenodd" height="43.349mm" image-rendering="optimizeQuality" shape-rendering="geometricPrecision" text-rendering="geometricPrecision" viewBox="0 0 4335 4335" width="43.349mm" xmlns="http://www.w3.org/2000/svg" xmlns:xlink="http://www.w3.org/1999/xlink" id="fi_16926395"><linearGradient id="id0" gradientUnits="userSpaceOnUse" x1="4679.1" x2="-344.18" y1="3732.68" y2="602.24"><stop offset="0" stop-color="#f6b53d"></stop><stop offset=".258824" stop-color="#f37d56"></stop><stop offset=".509804" stop-color="#f0466e"></stop><stop offset=".780392" stop-color="#ea2c7c"></stop><stop offset="1" stop-color="#7d27c4"></stop></linearGradient><g id="Layer_x0020_1"><path d="m2118 4285h-375c-14 0-29-7-38-18s-14-26-12-40l58-405c-194-42-376-119-544-225l-245 326c-9 12-22 20-37 21s-29-4-40-15l-529-529c-11-10-16-24-15-40 2-15 9-28 21-37l326-245c-106-167-182-350-225-544l-405 58c-14 1-29-3-40-12-11-10-18-24-18-38v-749c0-14 7-29 18-38s26-14 40-12l405 58c42-194 119-376 225-544l-326-245c-12-9-20-22-21-37s4-29 15-40l529-529c10-11 24-17 40-15 14 1 28 9 37 20l245 327c167-106 350-182 544-225l-58-405c-1-14 3-29 12-40s24-18 38-18h375c27 0 50 23 50 51v739c-28 0-46-1-50-1-733 0-1329 596-1329 1328 0 733 596 1329 1329 1329 4 0 22-1 50-2v740c0 28-23 51-50 51zm1176-1869h-1126v230h665c15 0 29 7 39 18l220 260c26-11 54-17 83-17 119 0 214 96 214 215 0 118-96 214-214 214s-214-96-214-214c0-52 18-100 49-137l-201-238h-641v324c0 28-23 51-50 51-526 0-955-429-955-955 0-525 429-954 955-954 27 0 50 23 50 51v323l641 1 201-238c-31-37-49-85-49-137 0-117 95-214 214-214s214 96 214 214-96 214-214 214c-29 0-57-5-83-16l-220 260c-9 11-24 18-39 18h-665v273h937l316-326c9-10 22-15 36-15h455c23-94 107-165 209-165 118 0 214 96 214 214 0 119-96 215-214 215-100 0-185-69-208-163h-435l-316 326c-9 10-23 15-36 15h-958v252h1126c22-94 107-164 208-164 117 0 214 96 214 215 0 118-97 214-214 214-100 0-185-70-208-164z" fill="url(#id0)"></path></g></svg>