<svg clip-rule="evenodd" fill-rule="evenodd" height="43.349mm" image-rendering="optimizeQuality" shape-rendering="geometricPrecision" text-rendering="geometricPrecision" viewBox="0 0 4335 4335" width="43.349mm" xmlns="http://www.w3.org/2000/svg" xmlns:xlink="http://www.w3.org/1999/xlink" id="fi_16926362"><linearGradient id="id0" gradientUnits="userSpaceOnUse" x1="4685.05" x2="-350.13" y1="3736.39" y2="598.53"><stop offset="0" stop-color="#f6b53d"></stop><stop offset=".258824" stop-color="#f37d56"></stop><stop offset=".509804" stop-color="#f0466e"></stop><stop offset=".780392" stop-color="#ea2c7c"></stop><stop offset="1" stop-color="#7d27c4"></stop></linearGradient><g id="Layer_x0020_1"><path d="m2733 2988h-75v198l163 138c29-21 64-33 102-33 95 0 172 77 172 172s-78 172-172 172c-95 0-172-77-172-172 0-20 3-39 9-57l-186-157c-11-10-18-24-18-39v-222h-174v417l238 230c10 9 15 23 15 36v328c69 22 120 87 120 164 0 95-77 172-172 172s-172-77-172-172c0-77 51-142 121-164v-307l-237-229c-10-9-15-23-15-37v-438h-161v553c70 21 121 87 121 164 0 95-77 172-172 172-94 0-171-77-171-172 0-77 51-143 121-164v-553h-143v222c0 15-7 28-18 39l-186 157c6 17 10 37 10 57 0 95-77 172-172 172s-172-77-172-172 77-172 172-172c38 0 72 12 101 33l163-138v-198h-171c-128 0-232-104-232-232v-140h-198l-138 163c21 29 33 64 33 101 0 95-77 172-172 172s-172-77-172-172c0-94 77-172 172-172 20 0 39 4 56 10l158-186c9-11 24-17 39-17h222v-176h-417l-230 238c-9 10-23 15-36 15h-329c-22 70-87 121-163 121-95 0-172-77-172-172s77-172 172-172c77 0 143 51 164 122h306l230-238c9-10 23-15 36-15h439v-160h-553c-22 70-87 121-164 121-95 0-172-77-172-172s77-172 172-172c77 0 142 51 164 121h553v-143h-222c-15 0-29-7-39-18l-157-186c-18 7-37 10-57 10-95 0-172-77-172-172s77-172 172-172 172 77 172 172c0 38-12 73-33 101l138 163h198v-152c0-128 104-232 232-232h146v-198l-164-138c-28 21-63 33-101 33-94 0-172-77-172-172s78-172 172-172c95 0 172 77 172 172 0 20-3 39-9 57l186 157c11 10 18 24 18 39v222h174v-417l-238-230c-10-9-15-23-15-36v-328c-70-22-121-87-121-164 0-95 77-172 172-172s172 77 172 172c0 77-51 142-121 164v307l238 229c10 9 15 23 15 36v439h160v-553c-70-22-121-87-121-164 0-95 77-172 172-172s172 77 172 172c0 77-51 142-121 164v553h143v-222c0-15 6-29 17-39l186-157c-6-18-9-37-9-57 0-95 77-172 171-172 95 0 172 77 172 172s-77 172-172 172c-37 0-72-12-100-33l-163 138v198h100c128 0 232 104 232 232v146h198l138-163c-21-29-33-64-33-102 0-94 77-171 172-171s172 77 172 171c0 95-77 172-172 172-20 0-39-3-57-9l-157 185c-10 12-24 18-39 18h-222v176h417l230-238c9-10 23-15 36-15h328c22-70 87-121 164-121 95 0 172 77 172 172s-77 172-172 172c-77 0-142-51-164-121h-307l-229 238c-9 9-23 15-36 15h-439v160h553c21-71 87-122 164-122 95 0 172 77 172 172s-77 172-172 172c-77 0-142-51-164-120h-553v143h223c15 0 28 6 39 17l156 186c18-7 37-10 57-10 95 0 172 77 172 172 0 94-77 171-172 171s-172-77-172-171c0-38 12-73 33-102l-137-162h-199v146c0 128-104 232-232 232zm-140-165h-851c-128 0-232-104-232-232v-847c0-128 104-232 232-232h850c128 0 232 104 232 232v847c0 128-103 232-231 232zm-851-1209c-72 0-131 58-131 130v847c0 72 59 130 131 130h850c72 0 131-58 131-130v-847c0-72-59-130-131-130zm211 288h-31c-12 0-21 9-21 21v36 214 215 24c0 12 9 21 21 21h491c8 0 13-4 15-6 3-1 6-7 6-15v-24-215-214-36c0-12-9-21-21-21h-31-1-213-1zm-51-100v-115c0-28 23-51 51-51s51 23 51 51v113h113v-113c0-28 23-51 50-51 28 0 51 23 51 51v113h113v-113c0-28 23-51 51-51s50 23 50 51v115c54 8 97 52 103 106h114c28 0 51 23 51 51s-23 51-51 51h-113v113h113c28 0 51 22 51 50s-23 51-51 51h-113v114h113c28 0 51 22 51 50s-23 51-51 51h-116c-5 23-17 43-34 60-18 19-41 30-67 34v115c0 28-22 51-50 51s-51-23-51-51v-113h-113v113c0 28-23 51-51 51-27 0-50-23-50-51v-113h-113v113c0 28-23 51-51 51s-51-23-51-51v-115c-49-8-89-45-100-94h-116c-28 0-51-23-51-51s23-50 51-50h113v-114h-113c-28 0-51-23-51-51s23-50 51-50h113v-113h-113c-28 0-51-23-51-51s23-51 51-51h114c6-54 49-98 102-106z" fill="url(#id0)"></path></g></svg>