<svg clip-rule="evenodd" fill-rule="evenodd" height="512" image-rendering="optimizeQuality" shape-rendering="geometricPrecision" text-rendering="geometricPrecision" viewBox="0 0 512 512" width="512" xmlns="http://www.w3.org/2000/svg" xmlns:xlink="http://www.w3.org/1999/xlink" id="fi_17642783"><linearGradient id="id0" gradientUnits="userSpaceOnUse" x1="534.071" x2="-22.071" y1="429.29" y2="82.711"><stop offset="0" stop-color="#f6b53d"></stop><stop offset=".258824" stop-color="#f37d56"></stop><stop offset=".509804" stop-color="#f0466e"></stop><stop offset=".780392" stop-color="#ea2c7c"></stop><stop offset="1" stop-color="#7d27c4"></stop></linearGradient><g id="Layer_x0020_1"><path d="m373 465h-234c-6 0-11-5-11-11v-53h256v53c0 6-5 11-11 11zm-333-117c-2 0-4-1-5-2-41-50-39-96-29-125 9-32 29-51 30-52 2-2 6-2 8 0s2 6 0 8c0 1-18 19-27 48-12 38-3 77 27 113 3 3 2 7 0 9-1 1-3 1-4 1zm31-26c-2 0-3-1-5-2-28-36-27-68-20-88 6-23 20-36 21-37 2-2 6-2 8 0 3 2 3 6 0 9s-12 12-18 32c-8 26-2 51 19 76 2 3 1 7-1 9-1 1-3 1-4 1zm34-28c-2 0-3-1-5-3-29-36 1-67 1-67 2-3 6-3 8 0 3 2 3 6 0 8-1 1-22 24 1 52 2 2 1 6-1 8-1 1-3 2-4 2zm367 51c-1 0-2-1-4-2-2-2-3-5 0-8 30-37 39-75 27-114-9-28-27-47-27-47-2-2-2-6 0-9 2-2 6-2 8 0 1 1 21 21 30 52 10 30 12 75-29 126-1 1-3 2-5 2zm-31-26c-1 0-3-1-4-2-2-2-3-6-1-8 21-25 27-51 19-77-6-19-18-32-18-32-2-2-2-6 0-8 2-3 6-3 8 0 1 0 15 14 22 36 6 21 8 53-21 88-2 2-3 3-5 3zm-34-29c-1 0-3 0-4-1-2-2-3-6-1-9 23-28 2-50 1-51-3-3-3-6 0-9 2-2 6-2 8 0 0 0 31 31 1 68-2 1-3 2-5 2zm-183-189h-56c-3 0-6-3-6-6v-19c0-3 3-6 6-6h56c3 0 6 3 6 6v19c0 3-3 6-6 6zm-50-12h44v-7h-44zm168 12h-37c-4 0-6-3-6-6v-19c0-3 2-6 6-6h37c4 0 6 3 6 6v19c0 3-2 6-6 6zm-31-12h25v-7h-25zm-26 363h-58c-4 0-6-2-6-6v-25c0-3 2-6 6-6h58c4 0 6 3 6 6v25c0 4-2 6-6 6zm-52-12h46v-13h-46zm-105-51v-266h256v266zm0-278v-53c0-6 5-11 11-11h234c6 0 11 5 11 11v53z" fill="url(#id0)"></path></g></svg>