<svg clip-rule="evenodd" fill-rule="evenodd" height="512" image-rendering="optimizeQuality" shape-rendering="geometricPrecision" text-rendering="geometricPrecision" viewBox="0 0 512 512" width="512" xmlns="http://www.w3.org/2000/svg" xmlns:xlink="http://www.w3.org/1999/xlink" id="fi_17597449"><linearGradient id="id0" gradientUnits="userSpaceOnUse" x1="549.702" x2="-37.702" y1="439.032" y2="72.968"><stop offset="0" stop-color="#f6b53d"></stop><stop offset=".258824" stop-color="#f37d56"></stop><stop offset=".509804" stop-color="#f0466e"></stop><stop offset=".780392" stop-color="#ea2c7c"></stop><stop offset="1" stop-color="#7d27c4"></stop></linearGradient><g id="Layer_x0020_1"><path d="m104 457c-16 0-30-13-30-30 0-15 10-27 24-30v-16c0-3 2-5 4-6l55-19v-12h-23c-34 0-62-28-62-63 0-12 4-24 10-33h-44c-3 0-6-3-6-6v-99c-14-2-24-15-24-30 0-16 14-30 30-30 17 0 31 14 31 30 0 15-11 28-25 30v93h48c10-9 22-15 35-17 0-1 0-3 0-4 0-27 17-50 41-59v-95c-15-3-25-16-25-30 0-17 14-31 31-31 16 0 30 14 30 31 0 14-11 27-24 30v92c3 0 6-1 10-1 23 0 44 14 55 34 5-3 9-5 15-7v-124c0-3 2-6 6-6h85c3-14 16-24 30-24 17 0 31 13 31 30s-14 31-31 31c-14 0-27-11-30-25h-79v115h8c27 0 51 17 59 43h20c17 0 31 6 43 17h66v-68c-14-3-25-15-25-30 0-17 14-31 31-31s30 14 30 31c0 15-10 27-24 30v74c0 3-3 6-6 6h-62c6 9 10 21 10 33 0 35-29 63-63 63h-22v12l54 19c3 1 4 3 4 6v16c14 3 25 15 25 30 0 17-14 30-31 30s-30-13-30-30c0-15 10-27 24-30v-12l-54-19c-3-1-4-3-4-6v-16h-51v42l50 25c2 1 4 3 4 5v35c14 3 24 16 24 30 0 17-13 31-30 31s-31-14-31-31c0-14 11-27 25-30v-31l-51-25c-2-1-3-3-3-5v-46h-31v46c0 2-1 4-3 5l-50 25v31c14 3 24 16 24 30 0 17-13 31-30 31s-31-14-31-31c0-14 11-27 25-30v-35c0-2 1-4 3-5l50-25v-42h-50v16c0 3-2 5-4 6l-55 19v12c14 3 25 15 25 30 0 17-14 30-31 30z" fill="url(#id0)"></path></g></svg>