<svg width="500" height="500" viewBox="0 0 500 500" fill="none" xmlns="http://www.w3.org/2000/svg">
<path d="M453.42 456.27C453.42 459.66 359.9 462.4 244.55 462.4C129.2 462.4 35.6797 459.65 35.6797 456.27C35.6797 452.89 129.2 450.14 244.55 450.14C359.9 450.14 453.42 452.89 453.42 456.27Z" fill="#F5F5F5"/>
<path d="M177.49 37.06C197.26 32.64 216.87 45.07 221.29 64.84C225.71 84.61 213.28 104.22 193.51 108.64C173.74 113.06 154.13 100.63 149.71 80.86L149.68 80.73C145.34 61 157.77 41.47 177.49 37.06Z" fill="#B5020B"/>
<path opacity="0.5" d="M177.49 37.06C197.26 32.64 216.87 45.07 221.29 64.84C225.71 84.61 213.28 104.22 193.51 108.64C173.74 113.06 154.13 100.63 149.71 80.86L149.68 80.73C145.34 61 157.77 41.47 177.49 37.06Z" fill="white"/>
<path opacity="0.1" d="M218.36 56.71C217.69 57.78 217.11 56.31 214.75 57.51C212.44 58.54 209.96 59.13 207.44 59.25L206.91 60.27C206.42 61.34 201.92 59.6 201.92 57.86C201.92 56.12 201.92 57.86 205.4 56.84C208.88 55.82 205.4 56.84 205.71 54.34C206.02 51.84 204.73 52.96 203.3 51.22C202.53 50.2 201.07 50 200.05 50.77C198.98 51.4 199.11 52.6 198.09 52.87C197.06 53.14 197.51 53.76 197.06 54.07C196.61 54.38 195.9 54.07 195.32 54.07C194.74 54.07 193.98 53.58 193.63 54.07C193.27 54.56 193.36 54.69 193.27 54.96C192.89 55 192.5 55 192.11 54.96C191.84 54.96 191.53 54.6 191.53 54.38C191.5 54.23 191.5 54.08 191.53 53.93C191.72 53.49 191.97 53.08 192.29 52.73C192.6 52.35 193.12 52.21 193.58 52.37C193.68 51.95 193.54 51.51 193.22 51.21H194.65C195.01 51.21 196.03 48.27 196.12 47.82C196.13 47.44 195.95 47.09 195.63 46.88C195.23 46.66 194.74 46.88 194.25 46.88C193.76 46.88 192.73 45.5 191.8 45.63C191.56 45.7 191.34 45.8 191.13 45.94L190.02 46.74C189.83 46.82 189.66 46.94 189.53 47.1C189.51 47.34 189.51 47.58 189.53 47.81C189.49 48.02 189.34 48.19 189.13 48.26C189.98 48.26 188.82 49.11 188.64 49.15C187.75 49.46 186.01 48.84 184.99 48.75C184.82 48.82 184.63 48.82 184.46 48.75C184.44 48.62 184.44 48.48 184.46 48.35C184.19 47.73 183.97 47.06 183.75 46.43C183.53 45.81 183.04 43.53 184.15 42.91C185.26 42.29 186.51 42.91 186.87 41.75C186.91 41.61 186.99 41.49 187.09 41.39C187.4 41.12 187.76 41.75 187.71 42.19C187.58 42.9 187.58 43.62 187.71 44.33C187.98 45.04 188.91 45.49 189.45 45.04C189.09 44.51 189.81 43.88 190.43 43.88C191.05 43.88 191.77 44.19 192.35 43.88C192.86 43.56 193.11 42.95 192.97 42.36C192.84 41.78 192.58 41.23 192.21 40.76C191.45 41.06 190.59 40.95 189.94 40.45C189.41 40.05 188.87 39.34 188.25 39.6C188.52 39.31 188.75 39 188.96 38.66C188.56 38.46 188.14 38.28 187.71 38.13C187.31 37.91 186.91 37.46 187.13 37.02C187.2 36.89 187.31 36.78 187.44 36.71C189.79 36.78 192.12 37.13 194.39 37.74C193.68 39.08 193.5 41.53 196.84 42.73C201.7 44.47 196.84 42.73 201.3 40.32C204.81 41.99 208.03 44.22 210.84 46.92L208.88 48.35C206.83 49.73 209.55 50.44 209.55 50.44H212.36C213.88 50.44 213.74 50.44 213.83 50.13C215.59 52.13 217.12 54.33 218.38 56.68L218.36 56.71Z" fill="black"/>
<path opacity="0.2" d="M163.45 59.07C163.47 59.25 163.47 59.43 163.45 59.6C163.18 60.54 161.8 60.22 160.87 60.49C158.91 61.11 159.4 64.55 157.48 65.44C156.54 65.84 155.43 65.44 154.49 65.84C153.86 66.29 153.29 66.81 152.8 67.4C151.79 68.3 150.43 68.69 149.1 68.47C149.87 61.56 152.64 55.02 157.08 49.66C157.43 49.6 157.8 49.6 158.15 49.66C158.85 49.91 159.35 50.53 159.44 51.26C159.57 52 159.57 52.75 159.44 53.49L160.87 52.42C161.51 52.84 161.68 53.7 161.26 54.33C161.25 54.35 161.24 54.36 161.23 54.38C160.78 55 159.89 55.09 159.09 55.23C158.29 55.36 157.4 55.81 157.35 56.57C157.31 57.33 157.8 57.77 158.2 58.26C158.6 58.75 159 59.51 158.65 60.04L161.77 58.21C161.95 58.1 162.15 58.03 162.35 57.99C162.93 58.03 163.4 58.48 163.46 59.06L163.45 59.07Z" fill="black"/>
<path opacity="0.2" d="M165.72 54.22L165.45 55.07C166.24 55.36 167.11 55.36 167.9 55.07C168.16 54.96 168.39 54.79 168.57 54.58C168.88 54.17 169.07 53.67 169.1 53.15C169.19 52.48 169.19 51.81 169.1 51.14C169.02 50.47 168.62 49.87 168.03 49.54C167.41 49.2 166.64 49.42 166.29 50.03C166.02 50.61 166.29 51.32 165.98 51.9C165.67 52.48 165.09 52.61 164.91 53.1C164.79 53.58 165.07 54.06 165.55 54.19C165.6 54.2 165.66 54.21 165.71 54.22H165.72Z" fill="black"/>
<path opacity="0.2" d="M181.28 39.15C180.17 40.09 178.38 38.84 177.05 39.46C175.71 40.08 175.98 40.75 175.22 40.89C174.8 40.91 174.39 40.91 173.97 40.89C173.52 40.89 173.08 41.2 173.12 41.6C173.17 41.79 173.28 41.96 173.43 42.09L174.54 43.11C174.67 43.25 174.79 43.4 174.9 43.56C175.07 44.05 174.81 44.58 174.32 44.75C174.31 44.75 174.29 44.75 174.28 44.76C173.8 44.91 173.29 44.91 172.81 44.76C172.5 44.73 172.2 44.66 171.92 44.54C171.65 44.54 171.47 43.96 171.65 43.69L171.96 43.38C172.25 43.1 172.38 42.7 172.32 42.31C172.27 41.88 171.91 41.55 171.47 41.55L170.89 41.82L168.97 42.98C168.08 43.47 166.96 44.01 166.07 43.56C165.9 43.55 165.75 43.45 165.67 43.29V42.71C165.74 42.48 165.74 42.23 165.67 42C169.27 39.64 173.27 37.97 177.48 37.05C178.85 36.74 180.23 36.51 181.62 36.38C181.89 37.41 181.98 38.56 181.26 39.14L181.28 39.15Z" fill="black"/>
<path opacity="0.2" d="M173.75 48.47C173.36 48.32 172.92 48.52 172.77 48.91C172.74 48.98 172.73 49.06 172.72 49.14L173.17 49.85V49.45C173.17 49.85 173.66 50.25 174.02 49.94C174.34 49.58 174.34 49.05 174.02 48.69L173.75 48.47Z" fill="black"/>
<path opacity="0.2" d="M189.92 58.98C189.34 58.36 188.32 58.58 187.42 58.67C186.53 58.76 185.41 58.31 185.46 57.47C185.5 56.62 186.4 56.4 187.15 56.36C187.22 55.13 186.29 54.08 185.06 54C184.98 54 184.91 54 184.83 54C185.14 54.71 185.14 55.52 184.83 56.23C184.55 56.91 183.77 57.24 183.09 56.96C183.05 56.94 183 56.92 182.96 56.9C181.85 56.05 183.23 53.83 182.16 52.93C181.58 52.66 180.91 52.66 180.33 52.93C178.19 53.42 175.87 54.18 175.03 56.23C175.03 56.45 173.25 56.23 172.71 56.23C172.17 56.23 171.86 57.88 171.77 58.46C171.64 58.77 171.64 59.13 171.77 59.44C171.77 59.8 172.35 60.15 172.17 60.51C171.99 60.87 171.72 60.78 171.55 61C171.37 61.22 172.71 63.23 173.15 63.45C173.6 63.67 174.84 63.45 175.69 63.85C176.32 64.31 176.62 65.1 176.45 65.86H175.65C176.08 66.96 175.71 68.2 174.76 68.89C175.91 68.66 177.1 69.03 177.92 69.87C177.92 69.87 178.32 70.32 178.59 70.32C178.77 70.29 178.94 70.22 179.08 70.1C179.98 69.57 180.62 68.7 180.86 67.69H181.75C181.75 67.2 181.75 66.4 181.22 66.58C180.69 66.76 181.22 66.58 180.91 66.85C180.6 67.12 179.75 66.85 179.71 66.09C179.74 65.5 179.96 64.94 180.33 64.49C180.55 64.22 180.73 63.91 180.95 63.6C181.36 62.87 182.03 62.31 182.82 62.04C184.2 61.73 185.32 63.2 185.98 64.45C186.25 64.98 186.38 65.83 185.98 65.92C185.58 66.01 185.36 65.7 185.13 65.92C184.91 66.14 185.13 66.63 184.68 66.86C184.23 67.09 184.19 66.86 183.97 66.86C183.75 66.86 183.48 67.88 183.97 68.42C184.46 68.95 184.64 68.11 184.99 67.89C185.35 67.67 186.68 68.25 187.49 67.89C188.29 67.53 188.16 67.22 188.47 66.91C188.78 66.6 190.88 65.89 191.01 64.73C191.14 63.57 190.56 63.48 190.43 62.81C190.3 62.14 190.74 59.87 189.9 59.02L189.92 58.98Z" fill="black"/>
<path opacity="0.1" d="M163.629 67.67C163.999 67.76 164.379 67.76 164.739 67.67C165.269 67.67 167.009 68.16 166.299 69.14C165.589 70.12 164.469 68.03 163.539 68.56C164.069 68.56 164.029 69.59 163.759 70.12C163.489 70.65 163.179 71.32 163.539 71.81C164.249 71.5 164.969 72.17 165.769 72.34C166.569 72.52 167.779 71.76 168.799 71.94V70.78C168.799 70.38 169.559 70.47 169.909 70.2C170.269 69.93 170.709 69.62 171.069 69.89C171.429 70.16 171.069 69 171.069 68.6C170.719 68.29 170.409 67.95 170.129 67.58C169.909 67.18 170.129 66.55 170.399 66.42C170.669 66.29 171.249 66.42 171.599 66.42C171.889 66.24 172.059 65.92 172.049 65.57C172.029 65.23 172.029 64.89 172.049 64.54H171.199C171.289 64.91 171.069 65.28 170.709 65.39C170.359 65.48 169.989 65.48 169.639 65.39C169.779 64.35 169.639 63.29 169.239 62.32H168.129C168.129 62.77 167.639 63.03 167.189 63.03C166.769 62.94 166.389 62.74 166.079 62.45C165.859 62.23 165.589 62 165.279 62.09C164.969 62.18 164.699 62.67 164.749 63.11C164.749 64.71 164.079 64.31 163.409 65.2C162.819 65.95 162.919 67.02 163.629 67.65V67.67Z" fill="black"/>
<path opacity="0.1" d="M164.39 83.09C163.5 83.24 162.58 83.12 161.76 82.73C161.4 82.51 160.96 82.24 160.56 82.46C160.2 82.69 160.03 83.12 160.11 83.53C160.11 83.89 160.51 84.24 160.64 84.64C161.15 85.68 161.15 86.9 160.64 87.94C158.89 88.28 157.07 87.86 155.65 86.78C155.5 86.63 155.37 86.46 155.25 86.29C154.94 85.58 155.92 84.77 155.74 84.06C155.56 83.35 154.18 82.81 154.63 82.14C155.08 81.47 155.48 81.87 155.88 81.69C156.34 81.46 156.53 80.9 156.3 80.44L156.28 80.4C155.21 79.9 153.94 80.26 153.29 81.25C152.53 81.25 152.31 80.14 152.27 79.42C152.23 78.71 151.74 77.64 150.98 77.9C150.71 78.02 150.53 78.28 150.49 78.57C149.91 80.26 151.29 81.87 152.54 83.03C152.87 83.28 153.1 83.65 153.16 84.05C153.16 84.5 152.89 84.99 152.45 84.9L154.01 86.64C154.14 86.81 154.21 87.01 154.23 87.22C154.26 87.35 154.26 87.49 154.23 87.62C153.8 88.19 153.4 88.79 153.03 89.4C151.55 86.59 150.47 83.59 149.82 80.49C149.21 77.66 148.93 74.78 148.97 71.89C149.22 71.51 149.55 71.21 149.95 71C150.44 71 151.02 71 151.47 70.73C152.58 70.42 153.07 68.99 154.19 68.55C155.09 68.24 156.08 68.53 156.69 69.26C157.26 70.04 157.46 71.04 157.22 71.98C156.94 72.69 156.85 73.45 156.95 74.21C157.4 75.5 159 75.64 160.34 75.59C160.2 76.41 160.61 77.23 161.36 77.6C162.06 77.83 162.82 77.44 163.04 76.74C163.07 76.66 163.08 76.57 163.1 76.49C163.95 76.49 165.02 77.02 165.02 77.92C164.86 78.47 164.51 78.94 164.04 79.26C163.68 79.71 163.37 80.37 163.73 80.82C164.09 81.27 165.29 80.82 165.6 81.58C165.91 82.34 164.98 83.01 164.4 83.1L164.39 83.09Z" fill="black"/>
<path opacity="0.2" d="M193.44 108.67H192.28C192.04 107.96 192.12 107.18 192.5 106.53C192.99 105.82 193.88 105.33 194.28 104.52C194.46 103.98 194.7 103.45 194.99 102.96C195.75 101.76 197.53 101.85 198.96 102.07C198.6 101.4 198.86 100.56 199.53 100.2C200.24 99.92 201 99.8 201.76 99.84C202.5 99.92 203.24 99.69 203.81 99.22C203.81 99 204.17 98.69 204.43 98.6H205.05L209.06 99.09C209.06 98.11 207.99 97.57 207.05 97.49C206.11 97.4 205 97.49 204.55 96.51C203.49 98.23 201.4 99.01 199.47 98.43C199.36 98.48 199.23 98.48 199.11 98.43C198.71 97.9 200.09 97.23 199.64 96.78L197.72 96.02C197.45 96.02 197.14 95.8 197.01 95.53C196.88 95.26 197.01 94.55 197.41 94.06C197.81 93.57 197.19 92.1 196.92 91.12C196.65 90.14 196.92 88.71 198.03 88.71H198.7C198.88 88.71 199.15 88 199.23 87.6C199.5 86.4 200.7 85.68 201.73 84.97C202.03 84.73 202.32 84.46 202.58 84.17C203.54 83.26 204.11 82.02 204.18 80.69C203.31 81.22 202.56 81.94 202 82.78C201.29 83.58 200.22 84.25 199.28 83.76C199.45 85.05 198.69 86.29 197.45 86.7C196.18 86.99 194.89 86.31 194.42 85.1C194.18 84.75 194.18 84.29 194.42 83.94C194.78 83.83 195.17 83.83 195.53 83.94C196.72 84.02 197.85 83.44 198.47 82.42C197.09 82.44 195.78 81.77 194.99 80.64C194.29 79.41 194.66 77.85 195.84 77.07H194.95C195.22 75.94 196.13 75.09 197.27 74.89H198.92C199.47 74.79 199.89 74.34 199.95 73.78C199.32 73.38 198.97 72.65 199.06 71.91C199.21 71.29 199.64 70.78 200.22 70.53C199.89 70.52 199.61 70.28 199.55 69.95C199.55 69.49 199.86 69.09 200.31 68.97C200.78 68.86 201.27 68.86 201.74 68.97C202.95 69.05 204.08 69.6 204.9 70.49C205.31 71.27 205.48 72.15 205.39 73.03V76.51C205.24 77.65 205.62 78.8 206.42 79.63C206.96 79.97 207.61 80.13 208.25 80.08C210.12 80.09 211.97 79.71 213.69 78.97C214.6 78.65 215.38 78.02 215.87 77.19C216.27 76.34 216.42 75.4 216.32 74.47C216.32 72.6 216.68 69.61 214.76 68.45C214.2 68.09 213.49 68.09 212.93 68.45C212.57 68.72 212.31 69.12 211.91 69.25C211.51 69.38 210.62 69.03 210.08 69.25C209.55 69.47 209.59 69.83 209.32 70.19C209.14 70.58 208.7 70.77 208.29 70.64C207.89 70.42 208.29 69.75 208.29 69.26C208.29 68.77 207.53 67.34 207.71 66.36C207.89 65.38 208.82 64.84 209.45 64.13C210.04 63.47 210.54 62.74 210.92 61.95C211.5 61.68 212.17 61.95 212.7 62.48C213.2 62.91 213.9 63.05 214.53 62.84C215.02 63.46 214.26 64.62 214.98 65.11H215.29C215.38 65.35 215.38 65.62 215.29 65.87C215.29 66.76 215.74 67.83 216.63 68.1H216.99C216.99 68.1 216.99 68.1 216.99 67.83C217.19 66.66 216.92 65.46 216.23 64.49C216.11 64.28 216 64.05 215.92 63.82C215.86 63.6 215.86 63.37 215.92 63.15C215.98 62.89 216.07 62.63 216.19 62.39C216.16 62.24 216.16 62.09 216.19 61.94C216.5 61.67 216.95 61.94 217.3 61.94C217.65 61.87 217.98 61.74 218.28 61.54C218.73 61.34 219.25 61.34 219.71 61.54C220.02 62.61 220.33 63.72 220.6 64.84C225.09 84.44 212.96 104 193.42 108.69L193.44 108.67Z" fill="black"/>
<path opacity="0.2" d="M188.01 97.13C187.85 97.86 187.85 98.62 188.01 99.36C187.16 99.88 186.13 100.04 185.16 99.81C184.45 101.72 185.29 103.86 187.12 104.76C186.52 105.25 185.72 105.4 184.98 105.16C184.29 104.86 183.66 104.43 183.11 103.91L178.65 100.48C177.94 100.75 178.38 101.86 179.1 102.22C179.81 102.58 180.66 102.62 181.02 103.29C181.38 103.96 181.02 105.3 181.42 106.01C181.78 106.27 182.17 106.49 182.58 106.68C183.25 107.19 183.55 108.05 183.34 108.86V109.44C177.73 109.17 172.26 107.57 167.39 104.76C167.41 104.48 167.41 104.2 167.39 103.91C167.39 102.57 168.64 101.68 169.66 100.88C170.81 100.2 171.54 99 171.62 97.67C169.88 98.12 169.21 100.3 167.74 101.24C167.35 101.49 166.93 101.68 166.49 101.82C165.75 102.2 165.05 102.64 164.4 103.16C160.79 100.71 157.66 97.61 155.17 94.02C155.89 93.06 156.24 91.87 156.15 90.68C156.55 90.19 157.17 91.08 157.75 91.13C158.33 91.18 158.77 90.28 159.44 90.24C160.11 90.2 160.38 92.16 161.4 92.51C162.42 92.87 162.74 91.93 163.45 91.84C164.16 91.75 165.01 92.42 165.86 92.15C168.31 91.39 166.48 88.72 166.84 87.2C167.06 86.49 167.95 86.35 168.53 86C169.39 85.42 169.9 84.45 169.91 83.42C169.88 82.42 169.72 81.43 169.42 80.48C169.04 79.56 169.12 78.52 169.64 77.67C170.58 76.65 172.4 77.31 173.7 76.65C174.99 75.98 174.99 74.73 175.93 74.02C176.78 73.43 177.79 73.13 178.83 73.17C179.1 73.13 179.37 73.13 179.63 73.17C180.12 73.44 180.03 74.19 179.94 74.69C179.62 76.22 179.16 77.71 178.56 79.15C179.72 79.68 181.32 80.17 182.17 79.15C182.32 78.87 182.52 78.61 182.75 78.39C183.23 78.14 183.79 78.14 184.27 78.39C184.67 79.28 185.12 80.13 185.56 80.93C183.27 80.79 181.15 82.16 180.35 84.32C180.3 84.64 180.18 84.94 179.99 85.21C179.68 85.57 179.22 85.77 178.74 85.74C177.27 85.54 175.85 85.08 174.55 84.36C173.12 83.91 171.12 84.36 170.76 85.61C171.92 85.21 172.9 86.41 174.01 86.86C174.66 87.07 175.33 87.19 176.02 87.22C177.68 87.37 179.31 87.79 180.83 88.47C181.97 88.01 182.75 86.94 182.84 85.71C183.93 87.24 185.68 88.17 187.56 88.21C187.12 89.66 187.12 91.21 187.56 92.67C188.09 93.74 189.16 94.72 189.12 95.92C188.55 96.11 188.13 96.58 188.01 97.17V97.13Z" fill="black"/>
<path d="M197.51 440.51C194.3 436.48 188.81 434.39 183.72 435.27C183.83 429.43 181.33 423.59 177.04 419.63C172.75 415.67 166.73 413.65 160.92 414.22C160.72 404.86 151.55 396.77 142.26 397.54V312.21H92.3696V397.54C83.0796 396.77 73.9095 404.86 73.7095 414.22C67.8995 413.65 61.8796 415.67 57.5896 419.63C53.2995 423.59 50.8095 429.43 50.9095 435.27C45.8295 434.39 40.3395 436.47 37.1195 440.51C33.9095 444.54 33.0995 450.36 35.0995 455.12H199.54C201.54 450.36 200.73 444.55 197.52 440.51H197.51Z" fill="#B5020B"/>
<path opacity="0.8" d="M197.51 440.51C194.3 436.48 188.81 434.39 183.72 435.27C183.83 429.43 181.33 423.59 177.04 419.63C172.75 415.67 166.73 413.65 160.92 414.22C160.72 404.86 151.55 396.77 142.26 397.54V312.21H92.3696V397.54C83.0796 396.77 73.9095 404.86 73.7095 414.22C67.8995 413.65 61.8796 415.67 57.5896 419.63C53.2995 423.59 50.8095 429.43 50.9095 435.27C45.8295 434.39 40.3395 436.47 37.1195 440.51C33.9095 444.54 33.0995 450.36 35.0995 455.12H199.54C201.54 450.36 200.73 444.55 197.52 440.51H197.51Z" fill="white"/>
<path d="M72.0397 177.81C72.0397 177.81 47.7797 190.04 40.4797 220.67C35.1597 243.01 36.7697 285.17 46.3597 288.56C55.9497 291.95 57.0197 265.84 57.0997 256.56C57.1797 247.28 65.8797 235.95 73.6297 235.27C73.6297 235.27 75.1497 186.28 72.0397 177.81Z" fill="#B5020B"/>
<path opacity="0.2" d="M75.6699 183.89C69.9299 186.08 65.22 190.27 61.4 194.97C57.33 200.13 53.98 205.83 51.45 211.89C48.64 218.37 46.59 225.16 45.35 232.11C44.19 239.44 43.62 246.84 43.65 254.26C43.52 263.33 43.3 272.78 46.84 281.33C46.98 281.67 47.54 281.52 47.4 281.18C44.34 273.73 44.15 265.59 44.21 257.65C44.27 250.16 44.39 242.63 45.45 235.2C47.35 222 52.16 208.65 59.99 197.79C64.05 192.16 69.2599 186.96 75.8499 184.45C76.1999 184.31 76.0499 183.76 75.6999 183.89H75.68H75.6699Z" fill="black"/>
<path d="M155.14 177.81C155.14 177.81 179.4 190.04 186.7 220.67C192.02 243.01 190.41 285.17 180.82 288.56C171.23 291.94 170.16 265.84 170.08 256.56C170 247.28 161.3 235.95 153.56 235.27C153.56 235.27 152.04 186.28 155.15 177.81H155.14Z" fill="#B5020B"/>
<path opacity="0.2" d="M151.36 184.44C157.13 186.64 161.84 190.92 165.64 195.7C169.61 200.83 172.87 206.46 175.34 212.46C178.11 218.91 180.12 225.66 181.33 232.57C182.6 239.85 182.85 247.24 182.93 254.62C183.05 263.53 183.24 272.78 179.79 281.18C179.65 281.52 180.21 281.67 180.35 281.33C183.45 273.78 183.61 265.52 183.54 257.47C183.48 249.88 183.34 242.26 182.24 234.74C181.18 227.58 179.26 220.57 176.53 213.86C174.16 207.8 171.02 202.07 167.19 196.81C163.14 191.33 157.98 186.37 151.52 183.9C151.17 183.76 151.02 184.32 151.37 184.46L151.36 184.44Z" fill="black"/>
<path d="M146.8 270.91H79.78C79.78 270.91 67.51 223.75 72.32 170.87C73.62 156.86 77.17 143.15 82.85 130.27C82.93 130.07 83.02 129.87 83.11 129.68C84.51 126.49 85.99 123.48 87.51 120.62C93.46 109.35 100.89 98.92 109.59 89.6C111.52 87.4 114.87 87.18 117.08 89.11C117.25 89.26 117.42 89.43 117.57 89.6C126.55 99.21 134.17 110.01 140.22 121.69C141.74 124.62 143.21 127.71 144.61 130.95L144.86 131.52C150.21 144.04 153.59 157.31 154.85 170.87C159.65 223.78 146.82 270.91 146.82 270.91H146.8Z" fill="#B5020B"/>
<g opacity="0.5">
<path d="M146.8 270.91H79.78C79.78 270.91 67.51 223.75 72.32 170.87C73.62 156.86 77.17 143.15 82.85 130.27C82.93 130.07 83.02 129.87 83.11 129.68C84.51 126.49 85.99 123.48 87.51 120.62C93.46 109.35 100.89 98.92 109.59 89.6C111.52 87.4 114.87 87.18 117.08 89.11C117.25 89.26 117.42 89.43 117.57 89.6C126.55 99.21 134.17 110.01 140.22 121.69C141.74 124.62 143.21 127.71 144.61 130.95L144.86 131.52C150.21 144.04 153.59 157.31 154.85 170.87C159.65 223.78 146.82 270.91 146.82 270.91H146.8Z" fill="white"/>
</g>
<path d="M139.39 264.19H89.1299V264.96H139.39V264.19Z" fill="#B5020B"/>
<path d="M148.33 288.86H80.5696C75.7396 281.91 80.8496 270.91 80.8496 270.91H146.95C146.95 270.91 152.03 279.89 148.32 288.86H148.33Z" fill="#2E353A"/>
<path d="M131.21 295.16H97.3298C94.9398 291.68 97.4698 286.18 97.4698 286.18H130.52C130.52 286.18 133.06 290.66 131.21 295.16Z" fill="#2E353A"/>
<path d="M131.229 295.16H97.4494C90.6094 298.79 73.5994 307.46 75.9794 322.14H153.579C155.959 307.46 138.079 298.78 131.239 295.16H131.229Z" fill="#B5020B"/>
<path d="M155.91 319.04H73.0596V325.43H155.91V319.04Z" fill="#2E353A"/>
<path d="M140.199 121.7C134.089 126.07 124.739 130.97 113.569 130.97C103.879 130.91 94.5693 127.21 87.4893 120.6C88.1293 119.39 88.7693 118.22 89.4193 117.07L89.7293 116.54C95.2593 106.81 101.919 97.76 109.569 89.59C111.499 87.39 114.849 87.17 117.059 89.1C117.229 89.25 117.399 89.42 117.549 89.59C125.219 97.78 131.889 106.86 137.429 116.62L137.739 117.17C138.579 118.64 139.389 120.16 140.199 121.71V121.7Z" fill="#B5020B"/>
<path opacity="0.2" d="M137.75 117.18C135.79 118.59 133.71 119.82 131.53 120.87C123.87 124.57 115.25 125.81 106.85 124.41C100.56 123.33 94.5899 120.82 89.4199 117.09L89.7299 116.56C91.8299 118.09 94.0799 119.41 96.4299 120.51C104.08 124.12 112.67 125.23 120.99 123.7C126.92 122.58 132.54 120.17 137.44 116.64L137.75 117.18Z" fill="black"/>
<path d="M145.69 179.31C142.62 148.29 140.22 135.87 139.94 134.51C141.1 133.88 142.18 133.24 143.13 132.62C143.71 132.26 144.27 131.89 144.81 131.53L144.56 130.96C143.99 131.34 143.41 131.76 142.8 132.11C136.42 136.14 126.16 140.95 113.81 140.95C104.08 140.95 94.5697 137.97 86.5897 132.4C85.2697 131.49 84.0997 130.57 83.0597 129.7C82.9697 129.89 82.8798 130.09 82.7998 130.29C83.8098 131.14 84.9497 132.01 86.2197 132.9C87.0197 133.46 87.9198 134.04 88.8698 134.62C88.5297 136.34 86.1597 148.86 83.1397 179.3C80.7497 203.08 82.9297 226.74 85.1497 242.4C86.4697 252.01 88.2797 261.55 90.5897 270.97C90.6197 271.1 90.7397 271.19 90.8698 271.19H90.9397C91.0897 271.15 91.1797 270.99 91.1497 270.84C88.8497 261.43 87.0397 251.92 85.7197 242.32C83.4997 226.7 81.3597 203.09 83.7097 179.37C86.6297 149.89 88.9397 137.25 89.3897 134.91C96.7897 139.3 105.23 141.62 113.84 141.61C122.78 141.5 131.55 139.18 139.37 134.86C139.77 136.89 142.11 149.46 145.08 179.42C147.43 203.14 145.29 226.74 143.07 242.37C141.76 251.96 139.95 261.48 137.64 270.89C137.6 271.04 137.7 271.2 137.85 271.24H137.92C138.05 271.24 138.17 271.15 138.2 271.02C140.51 261.6 142.32 252.06 143.64 242.45C145.89 226.76 148.04 203.1 145.68 179.33L145.69 179.31Z" fill="#B5020B"/>
<path d="M113.85 212.24C101.59 212.24 91.6396 202.31 91.6396 190.04C91.6396 177.78 101.57 167.83 113.84 167.83C126.1 167.83 136.05 177.76 136.05 190.03V190.05C136.04 202.3 126.11 212.24 113.85 212.25V212.24ZM113.85 168.42C101.91 168.42 92.2297 178.1 92.2297 190.04C92.2297 201.98 101.91 211.66 113.85 211.66C125.79 211.66 135.47 201.98 135.47 190.04C135.46 178.1 125.78 168.43 113.85 168.42Z" fill="#B5020B"/>
<path d="M130.66 190.04C130.66 199.33 123.13 206.85 113.85 206.85H113.46C110.61 206.79 107.83 206.01 105.38 204.57C103.48 203.46 101.82 201.99 100.48 200.25C98.2401 197.32 97.0301 193.74 97.0401 190.05C97.0401 189.4 97.0801 188.74 97.1501 188.1C98.0701 180.37 104.16 174.28 111.89 173.36C112.54 173.29 113.2 173.25 113.85 173.25C122.98 173.26 130.43 180.54 130.65 189.66C130.65 189.79 130.65 189.92 130.65 190.04H130.66Z" fill="#B5020B"/>
<path opacity="0.1" d="M124.04 176.7L100.48 200.26C98.2401 197.33 97.0301 193.75 97.0401 190.06C97.0401 189.41 97.0801 188.75 97.1501 188.11L111.89 173.37C112.54 173.3 113.2 173.26 113.85 173.26C117.53 173.26 121.11 174.46 124.04 176.7Z" fill="white"/>
<path opacity="0.1" d="M130.65 189.65L113.45 206.85C110.6 206.79 107.82 206.01 105.37 204.57L128.36 181.59C129.8 184.04 130.59 186.82 130.65 189.66V189.65Z" fill="white"/>
<path d="M165.1 362.68H68.5098V455.32H165.1V362.68Z" fill="#B5020B"/>
<path opacity="0.4" d="M165.1 362.68H68.5098V455.32H165.1V362.68Z" fill="white"/>
<path opacity="0.4" d="M165.08 362.68H99.25V455.32H165.08V362.68Z" fill="white"/>
<path d="M161.79 367.42H102.54V378.89H161.79V367.42Z" fill="#B5020B"/>
<path d="M161.79 381.76H102.54V393.23H161.79V381.76Z" fill="#B5020B"/>
<path d="M161.79 396.1H102.54V407.57H161.79V396.1Z" fill="#B5020B"/>
<path d="M161.79 410.44H102.54V421.91H161.79V410.44Z" fill="#B5020B"/>
<path d="M161.79 424.78H102.54V436.25H161.79V424.78Z" fill="#B5020B"/>
<path d="M161.79 439.13H102.54V450.6H161.79V439.13Z" fill="#B5020B"/>
<path d="M95.81 367.42H71.96V378.89H95.81V367.42Z" fill="#B5020B"/>
<path d="M95.81 381.76H71.96V393.23H95.81V381.76Z" fill="#B5020B"/>
<path d="M95.81 396.1H71.96V407.57H95.81V396.1Z" fill="#B5020B"/>
<path d="M95.81 410.44H71.96V421.91H95.81V410.44Z" fill="#B5020B"/>
<path d="M95.81 424.78H71.96V436.25H95.81V424.78Z" fill="#B5020B"/>
<path d="M95.81 439.13H71.96V450.6H95.81V439.13Z" fill="#B5020B"/>
<path opacity="0.3" d="M158.89 368.91H157.51V377.4H158.89V368.91Z" fill="white"/>
<path opacity="0.3" d="M156.23 368.91H154.85V377.4H156.23V368.91Z" fill="white"/>
<path opacity="0.3" d="M153.569 368.91H152.189V377.4H153.569V368.91Z" fill="white"/>
<path opacity="0.3" d="M150.909 368.91H149.529V377.4H150.909V368.91Z" fill="white"/>
<path opacity="0.3" d="M148.239 368.91H146.859V377.4H148.239V368.91Z" fill="white"/>
<path opacity="0.3" d="M158.89 383.25H157.51V391.73H158.89V383.25Z" fill="white"/>
<path opacity="0.3" d="M156.23 383.25H154.85V391.73H156.23V383.25Z" fill="white"/>
<path opacity="0.3" d="M153.569 383.25H152.189V391.73H153.569V383.25Z" fill="white"/>
<path opacity="0.3" d="M150.909 383.25H149.529V391.73H150.909V383.25Z" fill="white"/>
<path opacity="0.3" d="M148.239 383.25H146.859V391.73H148.239V383.25Z" fill="white"/>
<path opacity="0.3" d="M158.89 397.6H157.51V406.08H158.89V397.6Z" fill="white"/>
<path opacity="0.3" d="M156.23 397.6H154.85V406.08H156.23V397.6Z" fill="white"/>
<path opacity="0.3" d="M153.569 397.6H152.189V406.08H153.569V397.6Z" fill="white"/>
<path opacity="0.3" d="M150.909 397.6H149.529V406.08H150.909V397.6Z" fill="white"/>
<path opacity="0.3" d="M148.239 397.6H146.859V406.08H148.239V397.6Z" fill="white"/>
<path opacity="0.3" d="M158.89 411.94H157.51V420.43H158.89V411.94Z" fill="white"/>
<path opacity="0.3" d="M156.23 411.94H154.85V420.43H156.23V411.94Z" fill="white"/>
<path opacity="0.3" d="M153.569 411.94H152.189V420.43H153.569V411.94Z" fill="white"/>
<path opacity="0.3" d="M150.909 411.94H149.529V420.43H150.909V411.94Z" fill="white"/>
<path opacity="0.3" d="M148.239 411.94H146.859V420.43H148.239V411.94Z" fill="white"/>
<path opacity="0.3" d="M158.89 426.28H157.51V434.76H158.89V426.28Z" fill="white"/>
<path opacity="0.3" d="M156.23 426.28H154.85V434.76H156.23V426.28Z" fill="white"/>
<path opacity="0.3" d="M153.569 426.28H152.189V434.76H153.569V426.28Z" fill="white"/>
<path opacity="0.3" d="M150.909 426.28H149.529V434.76H150.909V426.28Z" fill="white"/>
<path opacity="0.3" d="M148.239 426.28H146.859V434.76H148.239V426.28Z" fill="white"/>
<path opacity="0.3" d="M158.89 440.62H157.51V449.11H158.89V440.62Z" fill="white"/>
<path opacity="0.3" d="M156.23 440.62H154.85V449.11H156.23V440.62Z" fill="white"/>
<path opacity="0.3" d="M153.569 440.62H152.189V449.11H153.569V440.62Z" fill="white"/>
<path opacity="0.3" d="M150.909 440.62H149.529V449.11H150.909V440.62Z" fill="white"/>
<path opacity="0.3" d="M148.239 440.62H146.859V449.11H148.239V440.62Z" fill="white"/>
<path opacity="0.2" d="M109.429 373.15C109.429 373.93 108.799 374.56 108.019 374.56C107.239 374.56 106.609 373.93 106.609 373.15C106.609 372.37 107.239 371.74 108.019 371.74C108.799 371.74 109.429 372.37 109.429 373.15Z" fill="white"/>
<path opacity="0.2" d="M118.299 373.15C118.299 373.93 117.669 374.56 116.889 374.56C116.109 374.56 115.479 373.93 115.479 373.15C115.479 372.37 116.109 371.74 116.889 371.74C117.669 371.74 118.299 372.37 118.299 373.15Z" fill="white"/>
<path opacity="0.4" d="M127.17 373.15C127.17 373.93 126.54 374.56 125.76 374.56C124.98 374.56 124.35 373.93 124.35 373.15C124.35 372.37 124.98 371.74 125.76 371.74C126.54 371.74 127.17 372.37 127.17 373.15Z" fill="white"/>
<path opacity="0.4" d="M109.429 387.49C109.429 388.27 108.799 388.9 108.019 388.9C107.239 388.9 106.609 388.27 106.609 387.49C106.609 386.71 107.239 386.08 108.019 386.08C108.799 386.08 109.429 386.71 109.429 387.49Z" fill="white"/>
<path opacity="0.2" d="M118.299 387.49C118.299 388.27 117.669 388.9 116.889 388.9C116.109 388.9 115.479 388.27 115.479 387.49C115.479 386.71 116.109 386.08 116.889 386.08C117.669 386.08 118.299 386.71 118.299 387.49Z" fill="white"/>
<path opacity="0.4" d="M127.17 387.49C127.17 388.27 126.54 388.9 125.76 388.9C124.98 388.9 124.35 388.27 124.35 387.49C124.35 386.71 124.98 386.08 125.76 386.08C126.54 386.08 127.17 386.71 127.17 387.49Z" fill="white"/>
<path opacity="0.2" d="M109.429 401.84C109.429 402.62 108.799 403.25 108.019 403.25C107.239 403.25 106.609 402.62 106.609 401.84C106.609 401.06 107.239 400.43 108.019 400.43C108.799 400.43 109.429 401.06 109.429 401.84Z" fill="white"/>
<path opacity="0.4" d="M118.299 401.84C118.299 402.62 117.669 403.25 116.889 403.25C116.109 403.25 115.479 402.62 115.479 401.84C115.479 401.06 116.109 400.43 116.889 400.43C117.669 400.43 118.299 401.06 118.299 401.84Z" fill="white"/>
<path opacity="0.2" d="M127.17 401.84C127.17 402.62 126.54 403.25 125.76 403.25C124.98 403.25 124.35 402.62 124.35 401.84C124.35 401.06 124.98 400.43 125.76 400.43C126.54 400.43 127.17 401.06 127.17 401.84Z" fill="white"/>
<path opacity="0.4" d="M109.429 416.18C109.429 416.96 108.799 417.59 108.019 417.59C107.239 417.59 106.609 416.96 106.609 416.18C106.609 415.4 107.239 414.77 108.019 414.77C108.799 414.77 109.429 415.4 109.429 416.18Z" fill="white"/>
<path opacity="0.2" d="M118.299 416.18C118.299 416.96 117.669 417.59 116.889 417.59C116.109 417.59 115.479 416.96 115.479 416.18C115.479 415.4 116.109 414.77 116.889 414.77C117.669 414.77 118.299 415.4 118.299 416.18Z" fill="white"/>
<path opacity="0.2" d="M127.17 416.18C127.17 416.96 126.54 417.59 125.76 417.59C124.98 417.59 124.35 416.96 124.35 416.18C124.35 415.4 124.98 414.77 125.76 414.77C126.54 414.77 127.17 415.4 127.17 416.18Z" fill="white"/>
<path opacity="0.2" d="M109.429 430.52C109.429 431.3 108.799 431.93 108.019 431.93C107.239 431.93 106.609 431.3 106.609 430.52C106.609 429.74 107.239 429.11 108.019 429.11C108.799 429.11 109.429 429.74 109.429 430.52Z" fill="white"/>
<path opacity="0.4" d="M118.299 430.52C118.299 431.3 117.669 431.93 116.889 431.93C116.109 431.93 115.479 431.3 115.479 430.52C115.479 429.74 116.109 429.11 116.889 429.11C117.669 429.11 118.299 429.74 118.299 430.52Z" fill="white"/>
<path opacity="0.4" d="M127.17 430.52C127.17 431.3 126.54 431.93 125.76 431.93C124.98 431.93 124.35 431.3 124.35 430.52C124.35 429.74 124.98 429.11 125.76 429.11C126.54 429.11 127.17 429.74 127.17 430.52Z" fill="white"/>
<path opacity="0.4" d="M109.429 444.87C109.429 445.65 108.799 446.28 108.019 446.28C107.239 446.28 106.609 445.65 106.609 444.87C106.609 444.09 107.239 443.46 108.019 443.46C108.799 443.46 109.429 444.09 109.429 444.87Z" fill="white"/>
<path opacity="0.2" d="M118.299 444.87C118.299 445.65 117.669 446.28 116.889 446.28C116.109 446.28 115.479 445.65 115.479 444.87C115.479 444.09 116.109 443.46 116.889 443.46C117.669 443.46 118.299 444.09 118.299 444.87Z" fill="white"/>
<path opacity="0.4" d="M127.17 444.87C127.17 445.65 126.54 446.28 125.76 446.28C124.98 446.28 124.35 445.65 124.35 444.87C124.35 444.09 124.98 443.46 125.76 443.46C126.54 443.46 127.17 444.09 127.17 444.87Z" fill="white"/>
<path opacity="0.3" d="M99.2498 362.68H68.5098V455.32H99.2498V362.68Z" fill="black"/>
<path d="M398.491 385.67H349.851V455.19H398.491V385.67Z" fill="#B5020B"/>
<path opacity="0.2" d="M398.48 385.67H382.65V455.32H398.48V385.67Z" fill="black"/>
<path d="M329.26 405.78H285.65V455.32H329.26V405.78Z" fill="#B5020B"/>
<path opacity="0.2" d="M329.27 405.78H315.07V455.32H329.27V405.78Z" fill="black"/>
<path d="M464.551 345.34H417.011V455.32H464.551V345.34Z" fill="#B5020B"/>
<path opacity="0.2" d="M464.55 345.34H449.07V455.32H464.55V345.34Z" fill="black"/>
<path d="M427.08 220.46H390.48C387.17 220.46 384.49 223.14 384.49 226.45V246.21C384.49 249.52 387.17 252.2 390.48 252.2H399.23L399.3 258.18L405.89 252.2H427.07C430.38 252.2 433.06 249.52 433.06 246.21V226.45C433.06 223.14 430.38 220.46 427.07 220.46H427.08Z" fill="#B5020B"/>
<path d="M404.28 233.2L398.51 235.9L404.28 238.59V240.76L396.57 237.02V234.76L404.28 231.02V233.19V233.2Z" fill="white"/>
<path d="M421.84 234.77V237.03L414.13 240.77V238.6L419.9 235.91L414.13 233.21V231.04L421.84 234.78V234.77Z" fill="white"/>
<path d="M410.55 229.52L406.79 242.51H408.67L412.43 229.52H410.55Z" fill="white"/>
<path d="M418.64 219.11H399.84C399.7 219.11 399.59 219 399.59 218.86C399.59 218.72 399.7 218.61 399.84 218.61H418.64C418.78 218.61 418.89 218.72 418.89 218.86C418.89 219 418.78 219.11 418.64 219.11Z" fill="#B5020B"/>
<path d="M423.821 219.12H420.851C420.711 219.12 420.601 219.01 420.601 218.87C420.601 218.73 420.711 218.62 420.851 218.62H423.821C423.961 218.62 424.071 218.73 424.071 218.87C424.071 219.01 423.961 219.12 423.821 219.12Z" fill="#B5020B"/>
<path d="M428.95 83.46H327.75C325.021 83.46 322.81 85.6717 322.81 88.4V171.92C322.81 174.648 325.021 176.86 327.75 176.86H428.95C431.678 176.86 433.89 174.648 433.89 171.92V88.4C433.89 85.6717 431.678 83.46 428.95 83.46Z" fill="#B5020B"/>
<path opacity="0.5" d="M428.95 83.46H327.75C325.021 83.46 322.81 85.6717 322.81 88.4V171.92C322.81 174.648 325.021 176.86 327.75 176.86H428.95C431.678 176.86 433.89 174.648 433.89 171.92V88.4C433.89 85.6717 431.678 83.46 428.95 83.46Z" fill="white"/>
<path d="M327.439 83.46H429.349C431.859 83.46 433.899 85.5 433.899 88.01V99.75H322.819V88.09C322.819 85.54 324.889 83.46 327.449 83.46H327.439Z" fill="#B5020B"/>
<path opacity="0.5" d="M427.62 92.79C427.62 94.75 426.03 96.35 424.06 96.35C422.09 96.35 420.5 94.76 420.5 92.79C420.5 90.82 422.09 89.23 424.06 89.23C426.03 89.23 427.62 90.82 427.62 92.79Z" fill="white"/>
<path opacity="0.5" d="M417.51 92.79C417.51 94.75 415.92 96.35 413.95 96.35C411.98 96.35 410.39 94.76 410.39 92.79C410.39 90.82 411.98 89.23 413.95 89.23C415.92 89.23 417.51 90.82 417.51 92.79Z" fill="white"/>
<path opacity="0.5" d="M407.41 92.79C407.41 94.75 405.82 96.35 403.85 96.35C401.88 96.35 400.29 94.76 400.29 92.79C400.29 90.82 401.88 89.23 403.85 89.23C405.82 89.23 407.41 90.82 407.41 92.79Z" fill="white"/>
<path opacity="0.6" d="M404.78 113.36H347.81V116.68H404.78V113.36Z" fill="white"/>
<path opacity="0.6" d="M389.469 120.54H348.699V123.86H389.469V120.54Z" fill="#263238"/>
<path d="M420.18 113.36H408.97V116.68H420.18V113.36Z" fill="#B5020B"/>
<path d="M343.859 113.36H332.649V116.68H343.859V113.36Z" fill="#B5020B"/>
<path d="M404.78 128.5H347.81V131.82H404.78V128.5Z" fill="#B5020B"/>
<path opacity="0.6" d="M420.18 128.5H408.97V131.82H420.18V128.5Z" fill="white"/>
<path d="M343.859 128.5H332.649V131.82H343.859V128.5Z" fill="#B5020B"/>
<path d="M404.78 160.07H347.81V163.39H404.78V160.07Z" fill="#B5020B"/>
<path opacity="0.6" d="M420.18 160.07H408.97V163.39H420.18V160.07Z" fill="white"/>
<path d="M404.78 136.49H347.81V139.81H404.78V136.49Z" fill="#B5020B"/>
<path opacity="0.6" d="M420.18 136.49H408.97V139.81H420.18V136.49Z" fill="#263238"/>
<path opacity="0.6" d="M343.859 136.49H332.649V139.81H343.859V136.49Z" fill="#263238"/>
<path d="M421.01 120.67H393.93V123.99H421.01V120.67Z" fill="#B5020B"/>
<path opacity="0.6" d="M388.58 143.45H347.81V146.77H388.58V143.45Z" fill="white"/>
<path d="M420.12 143.58H393.04V146.9H420.12V143.58Z" fill="#B5020B"/>
<path opacity="0.6" d="M368.19 150.66H347.81V153.98H368.19V150.66Z" fill="#263238"/>
<path d="M165.14 148.5V295.65C165.14 298.19 167.2 300.24 169.73 300.24H371.75V148.51C371.75 147.15 370.65 146.05 369.29 146.05H167.59C166.23 146.05 165.14 147.15 165.14 148.5Z" fill="#B5020B"/>
<path opacity="0.9" d="M367.28 146.05H169.61C167.141 146.05 165.14 148.051 165.14 150.52V295.78C165.14 298.249 167.141 300.25 169.61 300.25H367.28C369.748 300.25 371.75 298.249 371.75 295.78V150.52C371.75 148.051 369.748 146.05 367.28 146.05Z" fill="white"/>
<path d="M167.69 146.05H369.67C370.82 146.05 371.75 146.98 371.75 148.13V158.43H165.14V148.61C165.14 147.2 166.28 146.06 167.69 146.06V146.05Z" fill="#B5020B"/>
<path opacity="0.5" d="M368.61 151.72C368.96 153.57 367.37 155.17 365.52 154.82C364.49 154.63 363.65 153.78 363.46 152.76C363.11 150.91 364.7 149.31 366.55 149.66C367.58 149.86 368.42 150.7 368.61 151.72Z" fill="white"/>
<path opacity="0.5" d="M361.15 151.72C361.5 153.57 359.91 155.17 358.06 154.82C357.03 154.63 356.19 153.78 356 152.76C355.65 150.91 357.24 149.31 359.09 149.66C360.12 149.86 360.96 150.7 361.15 151.72Z" fill="white"/>
<path opacity="0.5" d="M353.68 151.72C354.03 153.57 352.44 155.17 350.59 154.82C349.56 154.63 348.72 153.78 348.53 152.76C348.18 150.91 349.77 149.31 351.62 149.66C352.65 149.86 353.49 150.7 353.68 151.73V151.72Z" fill="white"/>
<path d="M356.559 234.51C354.099 228.04 351.049 221.76 347.449 215.76C345.469 212.45 342.989 208.98 339.059 207.84C334.209 206.43 328.969 209.18 325.729 212.78C322.479 216.37 320.499 220.79 317.379 224.48C314.259 228.17 309.309 231.2 304.339 230.22C299.309 229.23 295.249 224.37 290.199 225.29C285.219 226.2 282.739 232.37 277.679 232.77C273.969 233.06 271.009 230.07 268.969 227.22C265.329 222.15 262.419 216.57 257.909 212.12C253.399 207.67 246.679 204.43 240.229 205.84C235.819 206.8 232.259 209.75 229.319 212.92C224.549 218.06 220.869 224.04 218.539 230.44C217.559 233.15 216.369 236.35 213.369 237.13C210.609 237.84 207.819 236 206.129 233.88C204.439 231.76 203.289 229.23 201.109 227.53C196.569 223.99 189.179 225.58 184.999 229.48C180.819 233.38 179.049 238.87 177.419 244.12V267.05H356.639L356.579 234.52L356.559 234.51Z" fill="#B5020B"/>
<g opacity="0.3">
<path d="M356.559 234.51C354.099 228.04 351.049 221.76 347.449 215.76C345.469 212.45 342.989 208.98 339.059 207.84C334.209 206.43 328.969 209.18 325.729 212.78C322.479 216.37 320.499 220.79 317.379 224.48C314.259 228.17 309.309 231.2 304.339 230.22C299.309 229.23 295.249 224.37 290.199 225.29C285.219 226.2 282.739 232.37 277.679 232.77C273.969 233.06 271.009 230.07 268.969 227.22C265.329 222.15 262.419 216.57 257.909 212.12C253.399 207.67 246.679 204.43 240.229 205.84C235.819 206.8 232.259 209.75 229.319 212.92C224.549 218.06 220.869 224.04 218.539 230.44C217.559 233.15 216.369 236.35 213.369 237.13C210.609 237.84 207.819 236 206.129 233.88C204.439 231.76 203.289 229.23 201.109 227.53C196.569 223.99 189.179 225.58 184.999 229.48C180.819 233.38 179.049 238.87 177.419 244.12V267.05H356.639L356.579 234.52L356.559 234.51Z" fill="white"/>
</g>
<path d="M356.919 234.41C355.199 229.91 353.219 225.51 350.969 221.25C349.009 217.54 346.989 213.46 343.989 210.46C341.329 207.8 337.789 206.57 334.069 207.33C330.119 208.13 326.789 210.75 324.329 213.85C321.519 217.4 319.569 221.6 316.469 224.93C313.369 228.26 308.859 230.81 304.259 229.82C300.479 229.01 297.539 226.19 293.849 225.15C290.549 224.22 287.739 225.45 285.239 227.58C282.579 229.85 279.849 233.12 275.929 232.28C271.549 231.35 268.909 226.59 266.659 223.15C262.009 216.06 257.099 208.61 248.569 205.95C244.729 204.75 240.649 204.86 236.969 206.54C233.109 208.3 229.999 211.41 227.309 214.61C224.459 217.99 222.019 221.73 220.109 225.72C219.219 227.58 218.509 229.49 217.769 231.4C217.089 233.18 216.219 235.18 214.529 236.22C212.299 237.58 209.699 236.67 207.849 235.11C206.189 233.71 205.149 231.78 203.899 230.04C201.799 227.11 198.989 225.31 195.329 225.19C191.939 225.08 188.459 226.28 185.769 228.33C182.599 230.76 180.559 234.35 179.099 238C178.309 239.97 177.679 241.99 177.049 244.01C176.909 244.47 177.629 244.67 177.769 244.21C180.169 236.48 183.549 227.83 192.489 226.16C196.759 225.36 200.559 226.75 203.139 230.26C205.279 233.17 207.119 236.78 211.019 237.55C214.469 238.22 216.759 235.66 218.019 232.78C218.779 231.03 219.359 229.21 220.129 227.46C221.029 225.43 222.059 223.47 223.219 221.57C225.549 217.74 228.379 214.11 231.679 211.07C234.979 208.03 238.999 205.81 243.589 205.88C253.019 206.02 259.489 213.63 264.259 220.86C267.539 225.84 272.629 235.99 280.199 232.46C283.149 231.09 285.039 228.23 287.809 226.6C291.519 224.42 295.129 226.27 298.509 228.15C301.889 230.03 304.949 231.33 308.699 230.51C312.449 229.69 315.799 227.08 318.189 224.07C320.989 220.54 322.949 216.4 325.989 213.05C328.779 209.98 332.899 207.53 337.179 207.88C341.459 208.23 344.569 211.81 346.749 215.34C349.199 219.3 351.359 223.45 353.299 227.68C354.339 229.96 355.309 232.28 356.199 234.62C356.369 235.07 357.099 234.87 356.919 234.42V234.41Z" fill="#B5020B"/>
<path opacity="0.3" d="M176.979 184.06V267.04C176.979 267.24 177.149 267.42 177.359 267.42H349.359C351.659 267.42 354.039 267.61 356.329 267.42C356.429 267.42 356.529 267.42 356.63 267.42C357.109 267.42 357.109 266.67 356.63 266.67H180.039C179.309 266.67 178.369 266.51 177.649 266.67C177.559 266.69 177.45 266.67 177.35 266.67L177.729 267.05V184.07C177.729 183.59 176.979 183.59 176.979 184.07V184.06Z" fill="black"/>
<path opacity="0.3" d="M210.399 182.33V267.04C210.399 267.52 211.149 267.52 211.149 267.04V182.33C211.149 181.85 210.399 181.85 210.399 182.33Z" fill="black"/>
<path opacity="0.3" d="M239.539 182.33V267.04C239.539 267.52 240.289 267.52 240.289 267.04V182.33C240.289 181.85 239.539 181.85 239.539 182.33Z" fill="black"/>
<path opacity="0.3" d="M268.68 182.33V267.04C268.68 267.52 269.43 267.52 269.43 267.04V182.33C269.43 181.85 268.68 181.85 268.68 182.33Z" fill="black"/>
<path opacity="0.3" d="M297.819 182.33V267.04C297.819 267.52 298.569 267.52 298.569 267.04V182.33C298.569 181.85 297.819 181.85 297.819 182.33Z" fill="black"/>
<path opacity="0.3" d="M326.949 182.33V267.04C326.949 267.52 327.699 267.52 327.699 267.04V182.33C327.699 181.85 326.949 181.85 326.949 182.33Z" fill="black"/>
<path opacity="0.3" d="M356.249 182.33V267.04C356.249 267.52 356.999 267.52 356.999 267.04V182.33C356.999 181.85 356.249 181.85 356.249 182.33Z" fill="black"/>
<path opacity="0.3" d="M176.929 248.79H356.629C357.109 248.79 357.109 248.04 356.629 248.04H176.929C176.449 248.04 176.449 248.79 176.929 248.79Z" fill="black"/>
<path opacity="0.3" d="M176.929 227.8H356.629C357.109 227.8 357.109 227.05 356.629 227.05H176.929C176.449 227.05 176.449 227.8 176.929 227.8Z" fill="black"/>
<path opacity="0.3" d="M176.929 206.81H356.629C357.109 206.81 357.109 206.06 356.629 206.06H176.929C176.449 206.06 176.449 206.81 176.929 206.81Z" fill="black"/>
<path opacity="0.3" d="M176.929 185.81H356.629C357.109 185.81 357.109 185.06 356.629 185.06H176.929C176.449 185.06 176.449 185.81 176.929 185.81Z" fill="black"/>
<path d="M188.309 282.59C189.872 282.59 191.139 281.323 191.139 279.76C191.139 278.197 189.872 276.93 188.309 276.93C186.747 276.93 185.479 278.197 185.479 279.76C185.479 281.323 186.747 282.59 188.309 282.59Z" fill="#B5020B"/>
<path d="M194.849 278.67H246.439C246.919 278.67 246.919 277.92 246.439 277.92H194.849C194.369 277.92 194.369 278.67 194.849 278.67Z" fill="#263238"/>
<path d="M194.849 282.11H223.259C223.739 282.11 223.739 281.36 223.259 281.36H194.849C194.369 281.36 194.369 282.11 194.849 282.11Z" fill="#263238"/>
<path d="M269.189 282.59C270.752 282.59 272.019 281.323 272.019 279.76C272.019 278.197 270.752 276.93 269.189 276.93C267.626 276.93 266.359 278.197 266.359 279.76C266.359 281.323 267.626 282.59 269.189 282.59Z" fill="#B5020B"/>
<path d="M275.729 278.67H327.319C327.799 278.67 327.799 277.92 327.319 277.92H275.729C275.249 277.92 275.249 278.67 275.729 278.67Z" fill="#263238"/>
<path d="M275.729 282.11H304.139C304.619 282.11 304.619 281.36 304.139 281.36H275.729C275.249 281.36 275.249 282.11 275.729 282.11Z" fill="#263238"/>
<path d="M365.83 431.85L369.06 450.49L361.4 453.58L355.03 434.02L365.83 431.85Z" fill="#E9B376"/>
<path d="M366.68 448.96C366.16 450.36 364.92 451.04 363.59 450.78L362.7 449.52C361.93 448.44 360.86 448.05 359.69 448.84C359.11 449.23 358.62 450.34 358.68 451.71C358.78 454.18 357.8 455.76 357.8 455.76C357.8 455.76 353.61 461.39 351.91 463.03C350.9 464.01 349.57 465.38 349.37 467.1C349.31 467.59 349.31 468.14 349.37 468.75C349.43 469.25 349.91 470.2 349.92 470.22L364.12 463C364.12 463 365.14 461.42 365.77 461.13C366.89 460.61 367.86 461.32 367.86 461.32L373.04 458.73C373.04 458.73 372.73 457.88 372.29 456.65C372.09 456.09 371.86 455.46 371.62 454.79C370.58 451.92 369.38 448.25 369.08 447.44C368.55 446.02 366.68 448.94 366.68 448.94V448.96Z" fill="#263238"/>
<path d="M355.47 458.68C355.5 458.59 355.6 458.53 355.7 458.54C356.15 458.58 356.58 458.74 356.96 459.01C357.16 459.16 356.95 459.5 356.74 459.35C356.4 459.1 356.02 458.97 355.63 458.93C355.5 458.92 355.42 458.8 355.47 458.68Z" fill="#B5020B"/>
<path d="M356.27 457.53C356.3 457.44 356.4 457.38 356.5 457.39C356.95 457.43 357.38 457.59 357.76 457.86C357.96 458.01 357.75 458.35 357.54 458.2C357.2 457.95 356.82 457.82 356.43 457.78C356.3 457.77 356.22 457.65 356.27 457.53Z" fill="#B5020B"/>
<path d="M357.121 456.41C357.151 456.32 357.251 456.26 357.351 456.27C357.801 456.31 358.231 456.47 358.611 456.74C358.811 456.89 358.601 457.23 358.391 457.08C358.051 456.83 357.671 456.7 357.281 456.66C357.151 456.65 357.071 456.53 357.121 456.41Z" fill="#B5020B"/>
<path opacity="0.2" d="M349.351 468C349.351 468.25 349.371 468.52 349.401 468.8C349.461 469.3 349.941 470.25 349.951 470.27L364.151 463.05C364.151 463.05 365.171 461.47 365.801 461.18C366.921 460.66 367.891 461.37 367.891 461.37L373.071 458.78C373.071 458.78 372.761 457.93 372.321 456.7L372.211 456.39L349.351 468Z" fill="white"/>
<path d="M357.541 456.67L357.311 456.62C356.931 456.54 355.641 456.24 355.181 455.89C354.701 455.53 354.391 455.03 354.331 454.51C354.291 454.22 354.361 453.84 354.661 453.67C354.951 453.5 355.281 453.61 355.521 453.74C355.981 453.98 356.401 454.39 356.741 454.94C357.041 455.42 357.251 455.95 357.461 456.46L357.551 456.68L357.541 456.67ZM354.981 453.83C354.911 453.83 354.841 453.84 354.781 453.88C354.591 453.99 354.551 454.27 354.581 454.48C354.631 454.93 354.911 455.37 355.331 455.69C355.631 455.92 356.421 456.16 357.141 456.32C356.971 455.89 356.781 455.45 356.531 455.06C356.211 454.55 355.831 454.17 355.411 453.95C355.311 453.9 355.151 453.83 354.991 453.83H354.981Z" fill="#B5020B"/>
<path d="M357.29 456.72L357.27 456.48C357.23 455.93 357.19 455.36 357.26 454.8C357.33 454.16 357.52 453.61 357.84 453.19C358.06 452.89 358.31 452.74 358.59 452.76C358.93 452.79 359.15 453.1 359.25 453.38C359.42 453.87 359.36 454.46 359.09 454.99C358.82 455.51 357.8 456.33 357.49 456.58L357.3 456.73L357.29 456.72ZM358.54 453.01C358.32 453.01 358.14 453.22 358.04 453.34C357.75 453.73 357.58 454.23 357.51 454.83C357.46 455.29 357.48 455.77 357.51 456.23C358.08 455.77 358.69 455.21 358.86 454.87C359.1 454.4 359.16 453.88 359.01 453.45C358.94 453.25 358.78 453.02 358.57 453H358.54V453.01Z" fill="#B5020B"/>
<path d="M341.21 427.86L344.44 446.5L336.78 449.59L330.42 430.04L341.21 427.86Z" fill="#E9B376"/>
<path d="M342.07 444.97C341.55 446.37 340.31 447.05 338.98 446.79L338.09 445.53C337.32 444.45 336.25 444.06 335.08 444.85C334.5 445.24 334.01 446.35 334.06 447.72C334.16 450.19 333.18 451.77 333.18 451.77C333.18 451.77 328.99 457.4 327.29 459.04C326.28 460.02 324.95 461.39 324.75 463.11C324.69 463.6 324.69 464.15 324.75 464.76C324.81 465.26 325.29 466.21 325.3 466.23L339.5 459.01C339.5 459.01 340.52 457.43 341.15 457.14C342.27 456.62 343.24 457.33 343.24 457.33L348.42 454.74C348.42 454.74 348.11 453.89 347.67 452.66C347.47 452.1 347.24 451.47 347 450.8C345.96 447.93 344.76 444.26 344.46 443.45C343.93 442.03 342.06 444.95 342.06 444.95L342.07 444.97Z" fill="#263238"/>
<path d="M330.86 454.69C330.89 454.6 330.99 454.54 331.09 454.55C331.54 454.59 331.97 454.75 332.35 455.02C332.55 455.17 332.34 455.51 332.13 455.36C331.79 455.11 331.41 454.98 331.02 454.94C330.89 454.93 330.81 454.81 330.86 454.69Z" fill="#B5020B"/>
<path d="M331.65 453.54C331.68 453.45 331.78 453.39 331.88 453.4C332.33 453.44 332.76 453.6 333.14 453.87C333.34 454.02 333.13 454.36 332.92 454.21C332.58 453.96 332.2 453.83 331.81 453.79C331.68 453.78 331.6 453.66 331.65 453.54Z" fill="#B5020B"/>
<path d="M332.5 452.42C332.53 452.33 332.63 452.27 332.73 452.28C333.18 452.32 333.61 452.48 333.99 452.75C334.19 452.9 333.98 453.24 333.77 453.09C333.43 452.84 333.05 452.71 332.66 452.67C332.53 452.66 332.45 452.54 332.5 452.42Z" fill="#B5020B"/>
<path opacity="0.2" d="M324.73 464.02C324.73 464.27 324.75 464.54 324.78 464.82C324.84 465.32 325.32 466.27 325.33 466.29L339.53 459.07C339.53 459.07 340.55 457.49 341.18 457.2C342.3 456.68 343.27 457.39 343.27 457.39L348.45 454.8C348.45 454.8 348.14 453.95 347.7 452.72L347.59 452.41L324.73 464.02Z" fill="white"/>
<path d="M332.92 452.69L332.69 452.64C332.31 452.56 331.02 452.26 330.56 451.91C330.08 451.55 329.77 451.05 329.71 450.53C329.67 450.24 329.74 449.86 330.04 449.69C330.33 449.52 330.66 449.63 330.9 449.76C331.36 450 331.78 450.41 332.12 450.96C332.42 451.44 332.63 451.97 332.84 452.48L332.93 452.7L332.92 452.69ZM330.36 449.85C330.29 449.85 330.22 449.86 330.16 449.9C329.97 450.01 329.93 450.29 329.96 450.5C330.01 450.95 330.29 451.39 330.71 451.71C331.01 451.94 331.8 452.18 332.52 452.34C332.35 451.91 332.16 451.47 331.91 451.08C331.59 450.57 331.21 450.19 330.79 449.97C330.69 449.92 330.53 449.85 330.37 449.85H330.36Z" fill="#B5020B"/>
<path d="M332.67 452.73L332.65 452.49C332.61 451.94 332.57 451.37 332.64 450.81C332.71 450.16 332.9 449.62 333.22 449.2C333.44 448.9 333.72 448.75 333.96 448.77C334.3 448.8 334.52 449.11 334.62 449.39C334.79 449.88 334.73 450.47 334.46 451C334.19 451.52 333.17 452.34 332.86 452.59L332.67 452.74V452.73ZM333.92 449.02C333.7 449.02 333.52 449.23 333.42 449.35C333.13 449.74 332.96 450.24 332.89 450.84C332.84 451.3 332.86 451.78 332.89 452.24C333.46 451.78 334.07 451.22 334.24 450.88C334.48 450.41 334.54 449.89 334.39 449.46C334.32 449.26 334.17 449.03 333.95 449.01H333.92V449.02Z" fill="#B5020B"/>
<path d="M402.979 347.91C402.979 347.91 384.509 365.97 374.909 374.94C365.309 383.91 335.099 382.58 335.099 382.58L346.499 440.76L330.839 442.65C330.839 442.65 316.069 399.48 310.339 376.39C309.509 373.04 311.059 367.99 312.569 365.86C318.899 356.95 365.879 355.44 365.879 355.44L366.909 349.17L402.969 347.9L402.979 347.91Z" fill="#263238"/>
<path opacity="0.2" d="M337.39 394.3C337.39 394.3 329.12 379.73 327.35 373.9C325.59 368.07 326.13 365.89 330.47 364.13C334.81 362.37 365.55 358.68 365.55 358.68L366.04 356.14L372.38 363.06C372.38 363.06 336.03 365.49 336.44 371.46C336.85 377.43 337.39 394.3 337.39 394.3Z" fill="black"/>
<path d="M402.979 347.91C402.979 347.91 406.779 370.35 399.029 376.09C391.629 381.58 360.359 384.85 360.359 384.85L369.959 443.35L354.629 446.04C354.629 446.04 339.719 401.44 333.979 378.36C333.149 375.01 333.859 370.7 335.379 368.57C341.709 359.66 388.269 356.95 388.269 356.95L402.979 347.91Z" fill="#263238"/>
<path opacity="0.2" d="M360.36 384.86C360.36 384.86 357.91 381.3 356.06 379.84C356.06 379.84 361.36 381.6 362.37 384.74L360.36 384.86Z" fill="black"/>
<path d="M329.36 348.43L332.72 353.43C332.72 353.43 353.85 346.29 356.34 343.89C358.83 341.5 361.93 319.97 361.93 319.97V304.71L362.18 293.66C362.18 293.66 353.42 295.79 352.72 302.83C352.51 304.91 348.76 335.9 348.76 335.9L329.35 348.44L329.36 348.43Z" fill="#E9B376"/>
<path d="M336.27 360.94H367.06C367.06 362.13 365.74 363.07 364.13 363.07H313.98C312.38 363.06 311.1 362.11 311.1 360.94H336.27Z" fill="#263238"/>
<path d="M313.52 362.95H341.65C342.14 362.95 342.53 362.63 342.52 362.24C342.52 362.17 342.5 362.09 342.48 362.02L329.97 333.33C329.65 332.51 328.71 331.95 327.64 331.95H299.5C299.02 331.95 298.64 332.26 298.64 332.64C298.64 332.72 298.66 332.8 298.69 332.87L311.2 361.56C311.52 362.38 312.46 362.93 313.53 362.94L313.52 362.95Z" fill="#263238"/>
<path d="M299.49 331.95H327.63C328.7 331.95 329.64 332.51 329.96 333.33L342 360.93H367.06C367.06 362.12 365.74 363.06 364.13 363.06H313.98C313.47 363.06 313 362.95 312.59 362.78C311.94 362.56 311.41 362.12 311.19 361.56L298.68 332.87C298.65 332.79 298.63 332.72 298.63 332.63C298.63 332.25 299.02 331.94 299.49 331.94V331.95Z" fill="#B5020B"/>
<path d="M316.39 347.22C317 348.6 318.23 349.54 319.15 349.35C320.07 349.16 320.31 347.9 319.72 346.52C319.13 345.14 317.88 344.22 316.97 344.41C316.05 344.6 315.78 345.81 316.39 347.22Z" fill="white"/>
<g opacity="0.3">
<path d="M329.96 333.33L342 360.93H340.7L327.64 331.94C328.71 331.94 329.65 332.5 329.97 333.32L329.96 333.33Z" fill="black"/>
</g>
<path opacity="0.5" d="M299.49 331.95H327.63C328.7 331.95 329.64 332.51 329.96 333.33L342 360.93H367.06C367.06 362.12 365.74 363.06 364.13 363.06H313.98C313.47 363.06 313 362.95 312.59 362.78C311.94 362.56 311.41 362.12 311.19 361.56L298.68 332.87C298.65 332.79 298.63 332.72 298.63 332.63C298.63 332.25 299.02 331.94 299.49 331.94V331.95Z" fill="white"/>
<path d="M363.58 355.54C363.58 355.54 358.69 349.66 360.26 348.52L360.83 294.07L362.19 293.66L373.25 291.13L384.68 288.67L390.68 289.92L401.24 301.57C401.24 301.57 402.73 329.98 402.81 331.27C402.91 332.85 403.67 353.44 403.67 353.44C385.58 357.41 363.29 356.96 363.58 355.56V355.54Z" fill="#B5020B"/>
<path d="M369.49 292.07L374.1 298.97L382.57 288.53C382.57 288.53 380.31 286.78 378.41 285.15C376.9 283.86 372.81 278.69 372.81 278.69L371.69 279.67L364.57 285.81C364.57 285.81 369.65 288.71 369.53 289.79C369.73 290.73 369.95 291.69 369.42 292.06" fill="#E9B376"/>
<path opacity="0.2" d="M369.53 289.81C369.73 290.86 369.84 291.08 369.49 292.08C374.82 290.96 372.27 279.72 372.27 279.72H371.69L364.57 285.86C364.57 285.86 369.69 288.78 369.53 289.81Z" fill="black"/>
<path d="M350.82 268.72C350.09 271.76 351.03 277.83 355.04 275.55C359.05 273.28 352.07 263.5 350.82 268.72Z" fill="#263238"/>
<path d="M372.45 271.26C373.44 278.87 374.15 283.14 371.08 287.69C366.47 294.54 356.74 292.94 353.49 285.76C350.57 279.3 349.44 267.94 356.25 263.6C362.96 259.32 371.46 263.65 372.45 271.26Z" fill="#E9B376"/>
<path d="M372 261.03C370.17 257.09 364.37 255.83 361.88 258.51C361.51 258.91 365 259.4 364.6 259.34L366.01 265.4C366.44 265.22 367.41 265.57 368.13 266.87C368.13 266.87 368.56 275.04 372.47 277.75C379.88 272.43 377.92 261.7 372 261.03Z" fill="#263238"/>
<path d="M376.631 276.96C376.401 279.01 375.241 280.76 373.891 281.79C371.861 283.34 369.881 281.75 369.641 279.34C369.421 277.17 370.211 273.75 372.641 273.15C375.031 272.56 376.891 274.62 376.631 276.96Z" fill="#E9B376"/>
<path d="M362.11 275.5C362.26 276.27 361.97 276.97 361.46 277.06C360.96 277.15 360.43 276.6 360.28 275.83C360.13 275.06 360.42 274.36 360.92 274.27C361.42 274.18 361.95 274.73 362.1 275.5H362.11Z" fill="#263238"/>
<path d="M354.59 277.11C354.74 277.88 354.45 278.58 353.95 278.67C353.45 278.76 352.92 278.21 352.77 277.44C352.62 276.67 352.91 275.97 353.41 275.88C353.91 275.79 354.44 276.34 354.59 277.11Z" fill="#263238"/>
<path d="M356.96 276.21C356.96 276.21 355.26 280.5 354.78 282.21C356.04 282.97 357.8 282.17 357.8 282.17L356.96 276.21Z" fill="#D58745"/>
<path d="M362.99 271.06C362.89 271.13 362.74 271.15 362.62 271.09C361.13 270.4 359.97 271.09 359.96 271.09C359.79 271.2 359.56 271.14 359.45 270.97C359.34 270.8 359.4 270.57 359.57 270.47C359.63 270.43 361.08 269.57 362.93 270.43C363.11 270.52 363.19 270.73 363.11 270.92C363.08 270.98 363.04 271.03 362.99 271.06Z" fill="#263238"/>
<path d="M351.17 275.42C351.1 275.42 351.03 275.38 350.97 275.34C350.81 275.21 350.79 274.98 350.92 274.82C352.21 273.26 353.88 273.45 353.96 273.45C354.16 273.47 354.31 273.66 354.28 273.86C354.26 274.06 354.08 274.2 353.88 274.18C353.81 274.17 352.52 274.04 351.49 275.29C351.41 275.39 351.29 275.43 351.17 275.42Z" fill="#263238"/>
<path d="M371.72 261.54C371.66 261.54 371.61 261.52 371.56 261.48C371.45 261.39 371.44 261.23 371.53 261.13C372.48 259.99 373.69 259.11 374.78 258.77C374.91 258.73 375.05 258.8 375.09 258.94C375.13 259.07 375.06 259.21 374.92 259.25C373.94 259.55 372.79 260.39 371.91 261.45C371.86 261.51 371.79 261.54 371.72 261.54Z" fill="#263238"/>
<path d="M371.83 261.42C371.83 261.42 371.78 261.42 371.75 261.41C371.62 261.37 371.55 261.23 371.59 261.1C372.03 259.74 371.95 258.21 371.36 256.9C371.3 256.77 371.36 256.63 371.49 256.57C371.62 256.51 371.76 256.57 371.82 256.7C372.46 258.12 372.55 259.78 372.07 261.26C372.04 261.37 371.94 261.43 371.83 261.43V261.42Z" fill="#263238"/>
<path opacity="0.2" d="M371.51 278.37C371.38 278.37 371.27 278.27 371.26 278.14C371.21 277.43 371.34 276.72 371.64 276.08C371.85 275.65 372.23 275.06 372.86 274.77C373.49 274.48 374.24 274.59 374.68 275.03C374.78 275.13 374.78 275.29 374.68 275.38C374.58 275.48 374.42 275.48 374.33 275.38C374.04 275.09 373.51 275.02 373.07 275.22C372.57 275.45 372.26 275.93 372.09 276.29C371.82 276.85 371.71 277.47 371.76 278.09C371.77 278.23 371.67 278.35 371.53 278.36H371.51V278.37Z" fill="black"/>
<path d="M359.69 283.97C361.44 283.52 362.87 282.26 363.52 280.57C363.56 280.47 363.5 280.36 363.4 280.33H363.39C363.3 280.29 363.19 280.34 363.16 280.44C362.54 282.01 361.22 283.17 359.6 283.6C359.51 283.64 359.46 283.74 359.5 283.83C359.54 283.93 359.64 283.97 359.73 283.94L359.68 283.98L359.69 283.97Z" fill="#263238"/>
<path d="M367.52 292.44C367.67 292.22 369.7 290.77 369.7 290.77L373.76 293.97L379.59 285.89L384.68 288.66L373.91 302.2L367.52 292.43V292.44Z" fill="#B5020B"/>
<path opacity="0.1" d="M373.94 356.39C373.84 356.39 373.74 356.32 373.7 356.22C371.33 349.31 371.64 341.53 371.94 334.01C372.05 331.3 372.16 328.51 372.13 325.84C372.05 317.09 372.47 307.38 373.46 295.29C373.47 295.15 373.59 295.04 373.73 295.06C373.87 295.07 373.97 295.19 373.96 295.33C372.97 307.4 372.55 317.1 372.63 325.83C372.65 328.5 372.54 331.31 372.44 334.02C372.14 341.5 371.84 349.23 374.17 356.05C374.21 356.18 374.15 356.32 374.01 356.37C373.98 356.37 373.96 356.38 373.93 356.38L373.94 356.39Z" fill="black"/>
<path opacity="0.2" d="M390.24 327.57L385.12 328.06L386.87 306.27L388.14 324.89L402.5 325.49L390.24 327.57Z" fill="black"/>
<path opacity="0.2" d="M367.52 292.44C367.63 292.61 369.99 297.29 370.99 299.27C371.16 299.6 371.64 299.57 371.76 299.23L373.57 294.34L371.34 298.14L367.52 292.45V292.44Z" fill="black"/>
<path opacity="0.2" d="M373.94 294.05C374.09 294.2 378.09 298.49 378.09 298.49L383.96 288.66L378.94 299.86C378.71 300.38 377.99 300.43 377.69 299.95L373.94 294.04V294.05Z" fill="black"/>
<path d="M390.28 315.93C390.28 315.93 390.25 331.65 390.21 331.81C390.18 331.98 362.81 343.41 362.81 343.41C362.81 343.82 366.88 348.57 366.88 348.57C366.88 348.57 396.73 344.65 400.1 339.56C402.98 335.22 403.43 315.72 403.43 315.72L390.28 315.92V315.93Z" fill="#E9B376"/>
<path d="M390.68 289.91C401.58 290.83 404.26 298.95 404.06 311.31C403.87 323.21 404.16 325.85 404.16 325.85L387.81 325.49C387.81 325.49 387.54 304.25 387.54 302.2C387.54 300.15 390.68 289.9 390.68 289.9V289.91Z" fill="#B5020B"/>
<path d="M362.48 330.6L347.5 326.83C347.5 326.83 351.61 305.51 352.31 301.94C353.11 297.89 358.01 294.82 362.19 293.66L365.71 307.36L362.48 330.6Z" fill="#B5020B"/>
<path opacity="0.2" d="M360.26 330.04C360.1 330 357.84 308.29 357.84 308.29L356.6 329.13L360.26 330.05V330.04Z" fill="black"/>
<path d="M348.45 358.52C348.59 357.12 351.22 350.98 352.57 348.94C353.92 346.9 362.81 343.41 362.81 343.41L368.03 347.18C368.03 347.18 368.03 349.36 366.18 350.94C365.12 351.85 361.53 352.77 361.53 352.77C361.53 352.77 361.83 353.88 361.83 355.12C361.83 356.5 361.56 358.19 360.42 358.14C359.29 358.09 358.87 354.44 358.82 353.91C358.87 354.44 359.19 358.18 357.67 358.31C356.21 358.44 355.97 354.54 355.97 354.54C355.97 354.54 355.89 356.35 355.85 357.28C355.8 358.21 354.87 359.01 354.01 357.98C353.01 356.78 352.93 354.72 352.93 354.72C352.93 354.72 352.14 355.93 350.96 358.56C350.11 360.45 348.33 359.69 348.45 358.51V358.52Z" fill="#E9B376"/>
<path opacity="0.1" d="M358.87 354.72C358.74 354.72 358.63 354.62 358.62 354.48C358.59 353.78 358.55 353.05 358.65 352.33C358.77 351.5 359.05 350.81 359.49 350.28C359.58 350.17 359.74 350.16 359.84 350.25C359.95 350.34 359.96 350.5 359.87 350.6C359.49 351.05 359.24 351.67 359.14 352.4C359.05 353.07 359.08 353.78 359.11 354.46C359.11 354.6 359.01 354.71 358.87 354.72Z" fill="black"/>
<path opacity="0.1" d="M355.9 355.22C355.77 355.22 355.66 355.12 355.65 354.98C355.62 354.28 355.58 353.55 355.68 352.83C355.8 351.99 356.08 351.3 356.52 350.78C356.61 350.68 356.77 350.66 356.87 350.75C356.98 350.84 356.99 351 356.9 351.1C356.52 351.55 356.28 352.16 356.17 352.9C356.08 353.57 356.11 354.28 356.14 354.95C356.14 355.09 356.04 355.2 355.9 355.21H355.89L355.9 355.22Z" fill="black"/>
<path opacity="0.1" d="M352.95 354.96C352.82 354.96 352.71 354.86 352.7 354.72C352.67 354.02 352.63 353.29 352.73 352.57C352.85 351.74 353.13 351.05 353.57 350.52C353.66 350.41 353.82 350.4 353.92 350.49C354.03 350.58 354.04 350.74 353.95 350.84C353.57 351.29 353.32 351.91 353.22 352.64C353.13 353.31 353.16 354.02 353.19 354.7C353.19 354.84 353.09 354.95 352.95 354.96Z" fill="black"/>
<path d="M370.36 258.33C369.67 257.46 368.57 257.01 367.47 256.83C365.99 256.58 364.45 256.69 363.02 257.13C361.37 257.64 359.86 258.6 358.16 258.86C357.95 258.89 357.71 258.9 357.56 258.76C357.45 258.66 357.42 258.51 357.37 258.37C357.07 257.45 356.14 256.76 355.17 256.76C354.2 256.76 353.26 257.43 352.96 258.36C352.03 256.9 349.8 256.73 348.33 257.64C346.85 258.55 346 259.57 345.51 261.23C345.34 261.81 345.27 263.08 345.48 264.03C345.91 265.93 346.95 267.09 348.61 268.1C350.85 269.46 353.5 270.4 356.08 269.93C359.52 269.3 362.13 266.34 365.53 265.51C366.81 265.2 368.34 265.28 369.23 266.25L372 261.03C372 260.15 371.15 259.32 370.35 258.32L370.36 258.33Z" fill="#263238"/>
<path d="M201.14 449.2L208.21 448.88L210.83 430.49L200.06 430.86L201.14 449.2Z" fill="#B97964"/>
<path d="M209.07 445.66H206.56C205.99 445.66 205.46 445.95 205.13 446.41C203.68 448.39 202.59 447.64 201.01 445.78C200.01 445.66 199.74 446.81 199.66 447.12L197.78 453.96C197.62 454.53 197.95 455.13 198.52 455.29C198.62 455.32 198.73 455.33 198.83 455.33H218.75C221.92 455.33 222.58 452.14 221.27 451.84C215.4 450.54 211.24 448.82 209.43 447.11C209.09 446.81 209.43 446.59 209.07 445.66Z" fill="#263238"/>
<path d="M213.99 447.94C214.25 447.75 214.41 447.45 214.42 447.12C214.44 446.95 214.36 446.77 214.21 446.68C213.42 446.12 210.28 447.59 209.93 447.76C209.89 447.77 209.86 447.81 209.85 447.84C209.82 447.91 209.86 447.99 209.93 448.02C210.7 448.2 211.49 448.3 212.29 448.32C212.89 448.38 213.48 448.24 214 447.93L213.99 447.94ZM214.01 446.91C214.07 446.95 214.11 447.02 214.09 447.1C214.08 447.34 213.96 447.55 213.78 447.7C213.07 448.23 211.34 448 210.41 447.83C211.72 447.26 213.57 446.61 214.01 446.91Z" fill="#B5020B"/>
<path d="M210.029 448.06C210.969 447.67 212.949 446.11 212.849 445.29C212.829 445.12 212.709 444.91 212.279 444.85C210.559 444.65 209.819 447.75 209.819 447.88C209.799 447.93 209.819 447.99 209.859 448.03C209.889 448.03 209.929 448.03 209.959 448.03L210.029 448.05V448.06ZM212.219 445.11C212.539 445.14 212.539 445.26 212.539 445.3C212.629 445.8 211.189 447.09 210.169 447.63C210.379 446.91 211.019 445.1 212.109 445.1H212.219V445.11Z" fill="#B5020B"/>
<path d="M208.14 449.56C208.14 449.56 208.05 449.55 208.01 449.52C207.89 449.45 207.86 449.29 207.93 449.18C208.44 448.38 209.3 447.82 210.24 447.69C210.37 447.68 210.5 447.77 210.52 447.9C210.54 448.03 210.44 448.16 210.31 448.18C209.51 448.29 208.78 448.76 208.35 449.44C208.3 449.52 208.22 449.56 208.14 449.56Z" fill="#B5020B"/>
<path d="M209.71 450.74C209.71 450.74 209.62 450.73 209.58 450.7C209.46 450.63 209.43 450.47 209.5 450.36C210.01 449.56 210.87 449 211.81 448.87C211.94 448.86 212.07 448.95 212.09 449.08C212.11 449.21 212.01 449.34 211.88 449.36C211.08 449.47 210.35 449.94 209.92 450.62C209.87 450.7 209.79 450.74 209.71 450.74Z" fill="#B5020B"/>
<path d="M211.65 451.73C211.65 451.73 211.56 451.72 211.52 451.69C211.4 451.62 211.37 451.46 211.44 451.35C211.95 450.55 212.81 449.99 213.75 449.86C213.88 449.84 214.01 449.94 214.03 450.07C214.05 450.21 213.95 450.33 213.82 450.35C213.02 450.46 212.29 450.93 211.86 451.61C211.81 451.69 211.73 451.73 211.65 451.73Z" fill="#B5020B"/>
<path opacity="0.3" d="M209.4 440.52L209.06 442.88L200.76 442.74L200.63 440.52H209.4Z" fill="black"/>
<path d="M230.6 447.38L238.27 446.41L239.96 429.07L229.43 428.78L230.6 447.38Z" fill="#B97964"/>
<path d="M238.659 444.96H236.149C235.579 444.96 235.049 445.25 234.719 445.71C233.269 447.69 232.179 446.94 230.599 445.08C229.599 444.96 229.329 446.11 229.249 446.42L227.369 453.26C227.209 453.83 227.539 454.43 228.109 454.59C228.209 454.62 228.319 454.63 228.419 454.63H248.339C251.509 454.63 252.169 451.44 250.859 451.14C244.989 449.84 240.829 448.12 239.019 446.41C238.679 446.11 239.019 445.89 238.659 444.96Z" fill="#263238"/>
<path d="M244.109 446.9C244.369 446.71 244.529 446.4 244.539 446.08C244.559 445.91 244.479 445.73 244.329 445.64C243.539 445.08 240.399 446.55 240.049 446.72C240.009 446.73 239.979 446.77 239.969 446.8C239.939 446.87 239.979 446.95 240.049 446.98C240.819 447.16 241.609 447.26 242.409 447.28C243.009 447.34 243.599 447.2 244.119 446.89L244.109 446.9ZM244.129 445.87C244.189 445.91 244.229 445.98 244.209 446.06C244.199 446.3 244.079 446.51 243.899 446.66C243.189 447.19 241.459 446.96 240.529 446.79C241.839 446.22 243.689 445.57 244.129 445.87Z" fill="#B5020B"/>
<path d="M240.159 447.02C241.099 446.63 243.079 445.07 242.979 444.25C242.959 444.08 242.839 443.87 242.409 443.82C240.689 443.62 239.949 446.72 239.949 446.85C239.929 446.9 239.949 446.96 239.989 447C240.019 447 240.059 447 240.089 447L240.159 447.02ZM242.349 444.07C242.669 444.1 242.669 444.22 242.669 444.26C242.759 444.76 241.319 446.05 240.299 446.59C240.509 445.87 241.149 444.06 242.239 444.06H242.349V444.07Z" fill="#B5020B"/>
<path d="M238.27 448.53C238.27 448.53 238.18 448.52 238.14 448.49C238.02 448.42 237.99 448.26 238.06 448.15C238.57 447.35 239.43 446.79 240.37 446.66C240.5 446.65 240.63 446.74 240.65 446.87C240.67 447 240.57 447.13 240.44 447.15C239.64 447.26 238.91 447.73 238.48 448.41C238.43 448.49 238.35 448.53 238.27 448.53Z" fill="#B5020B"/>
<path d="M239.829 449.7C239.829 449.7 239.739 449.69 239.699 449.66C239.579 449.59 239.549 449.43 239.619 449.32C240.129 448.52 240.989 447.96 241.929 447.83C242.059 447.82 242.189 447.91 242.209 448.04C242.229 448.18 242.129 448.3 241.999 448.32C241.199 448.43 240.469 448.9 240.039 449.58C239.989 449.66 239.909 449.7 239.829 449.7Z" fill="#B5020B"/>
<path d="M241.779 450.69C241.779 450.69 241.689 450.68 241.649 450.65C241.529 450.58 241.499 450.42 241.569 450.31C242.079 449.5 242.939 448.95 243.879 448.82C244.009 448.81 244.139 448.9 244.159 449.03C244.179 449.16 244.079 449.29 243.949 449.31C243.149 449.42 242.419 449.89 241.989 450.57C241.939 450.65 241.859 450.69 241.779 450.69Z" fill="#B5020B"/>
<path opacity="0.3" d="M238.94 439.48L238.71 441.85L230.25 441.8L230.1 439.48H238.94Z" fill="black"/>
<path d="M196.729 248.9C194.709 238.39 201.259 240.33 199.029 226.95C196.569 212.21 207.079 210.08 207.079 210.08C207.079 210.08 208.319 202.74 215.179 203.12C222.039 203.5 239.219 207.14 235.769 225.36C233.759 235.98 237.289 236.76 239.089 241.55C241.639 248.32 233.509 254.4 238.819 259.03C238.819 259.03 225.209 263.02 205.349 261.69C205.349 261.69 197.959 255.31 196.729 248.9Z" fill="#263238"/>
<path d="M233.72 252.85C233.72 252.85 243.06 276.22 244.54 276.36C246.02 276.5 264.97 269.12 264.97 269.12L267.92 272.45C267.92 272.45 258 285.72 242.29 289.93C239.47 290.69 235.91 287.49 232.51 283.12C231.84 282.27 231.19 281.37 230.55 280.45C227.06 275.27 223.92 269.85 221.17 264.24L233.73 252.85H233.72Z" fill="#B5020B"/>
<path opacity="0.6" d="M233.72 252.85C233.72 252.85 243.06 276.22 244.54 276.36C246.02 276.5 264.97 269.12 264.97 269.12L267.92 272.45C267.92 272.45 258 285.72 242.29 289.93C239.47 290.69 235.91 287.49 232.51 283.12C231.84 282.27 231.19 281.37 230.55 280.45C227.06 275.27 223.92 269.85 221.17 264.24L233.73 252.85H233.72Z" fill="white"/>
<path opacity="0.2" d="M233.72 255.94C234.45 259.18 236.17 264.03 237.52 267.48C237.96 268.6 238.15 269.8 237.95 270.99C237.37 274.39 234.43 275.48 233.45 278.19C232.9 279.78 232.59 281.44 232.51 283.12C231.84 282.27 231.19 281.37 230.55 280.45L229.1 274.72L233.73 255.94H233.72Z" fill="black"/>
<path d="M241.39 278.96C240.51 278.71 239.99 277.79 240.24 276.9L246.57 250.26C246.95 249 248.08 248.11 249.4 248.06L269.7 247.64C269.92 247.61 270.139 247.63 270.359 247.69C271.239 247.94 271.76 248.86 271.51 249.75L265.18 276.39C264.8 277.65 263.67 278.54 262.35 278.6L242.05 279.02C241.83 279.05 241.61 279.03 241.39 278.97V278.96Z" fill="#263238"/>
<path opacity="0.2" d="M241.39 278.96C240.51 278.71 239.99 277.79 240.24 276.9L246.57 250.26C246.95 249 248.08 248.11 249.4 248.06L269.7 247.64C269.92 247.61 270.139 247.63 270.359 247.69C271.239 247.94 271.76 248.86 271.51 249.75L265.18 276.39C264.8 277.65 263.67 278.54 262.35 278.6L242.05 279.02C241.83 279.05 241.61 279.03 241.39 278.97V278.96Z" fill="white"/>
<path d="M243.479 278.91C242.599 278.66 242.079 277.74 242.329 276.86L248.659 250.22C249.039 248.96 250.169 248.08 251.479 248.01L271.789 247.59C272.009 247.56 272.229 247.58 272.449 247.64C273.329 247.89 273.849 248.81 273.599 249.7L267.259 276.34C266.879 277.6 265.749 278.48 264.439 278.55L244.129 278.97C243.909 279 243.689 278.97 243.479 278.92V278.91Z" fill="#263238"/>
<path opacity="0.3" d="M243.479 278.91C242.599 278.66 242.079 277.74 242.329 276.86L248.659 250.22C249.039 248.96 250.169 248.08 251.479 248.01L271.789 247.59C272.009 247.56 272.229 247.58 272.449 247.64C273.329 247.89 273.849 248.81 273.599 249.7L267.259 276.34C266.879 277.6 265.749 278.48 264.439 278.55L244.129 278.97C243.909 279 243.689 278.97 243.479 278.92V278.91Z" fill="white"/>
<path opacity="0.2" d="M261.8 263.21C261.69 262.04 260.65 261.19 259.49 261.3C257.84 261.39 256.43 262.53 255.99 264.12C255.91 264.38 255.89 264.66 255.91 264.93C256.03 266.09 257.06 266.93 258.22 266.81C259.87 266.72 261.29 265.59 261.73 264C261.8 263.74 261.83 263.47 261.8 263.21Z" fill="white"/>
<path d="M268.659 264.48C268.259 264.45 266.559 265.29 265.759 264.73C264.959 264.17 265.709 263.71 265.709 263.71C267.169 263.35 268.779 261.52 269.669 262.05C270.559 262.57 272.029 263.23 271.819 264.06C271.579 264.83 271.279 265.58 270.939 266.32C271.169 266.69 271.199 267.15 271.019 267.55C270.839 268.01 270.429 268.35 269.949 268.44C270.229 268.72 270.369 269.11 270.349 269.51C270.279 270.14 268.619 270.97 268.619 270.97C268.619 270.97 268.939 271.96 268.559 272.34C267.909 272.87 267.049 273.07 266.229 272.87C265.259 272.64 264.589 272.3 264.659 271.32C264.729 270.34 266.479 270.34 266.479 270.34C266.479 270.34 263.179 269.34 263.879 268.72C264.579 268.1 267.209 268.17 267.209 268.17C267.209 268.17 262.749 267.29 263.459 266.37C264.169 265.45 268.609 265.7 268.609 265.7C268.609 265.7 269.059 264.5 268.659 264.47V264.48Z" fill="#B97964"/>
<path d="M214.319 302.14L234.029 302.22C234.029 302.22 240.919 336.89 240.509 375.76C241.309 398.58 240.669 440.54 240.669 440.54H227.849C227.849 440.54 219.679 406.46 222.949 379.46C221.759 374.8 220.169 366.74 219.239 362.63C216.619 351.54 214.649 340.3 213.339 328.98C211.089 307.76 214.309 302.14 214.309 302.14H214.319Z" fill="#263238"/>
<path opacity="0.2" d="M216.07 315.75C216.07 315.75 223.18 347.67 219.25 362.62C216.63 351.53 214.66 340.29 213.35 328.97L216.07 315.74V315.75Z" fill="black"/>
<path d="M197.75 293.06C196.03 300.76 189.29 310.17 187.92 320.02C185.59 336.85 195.71 357.78 198.35 377.52C194.35 406.72 200.48 442.13 199.67 441.36H212.54C212.93 438.76 215.57 399.2 216.88 375.76C217.99 355.24 219.76 303.65 219.76 303.65L197.74 293.06H197.75Z" fill="#263238"/>
<path d="M197.269 288.4C197.249 287.02 194.579 277.11 194.509 275.65C194.179 268.58 193.389 261.55 192.149 254.58C192.099 254.28 192.059 253.97 192.039 253.67C191.699 248.88 195.319 244.72 200.109 244.39C201.489 244.29 202.939 244.24 204.439 244.2C205.939 244.16 207.369 244.16 208.749 244.16C212.529 244.09 216.309 244.27 220.059 244.69L220.889 244.8C222.299 244.98 223.729 245.22 225.109 245.45C231.099 246.46 235.329 251.88 234.869 257.94C234.199 265.87 240.179 270.71 232.529 276.06C231.539 282.86 233.009 297.39 235.859 307.41C236.869 310.97 208.039 310.5 191.859 305.15L197.259 288.41" fill="#B5020B"/>
<path opacity="0.6" d="M197.269 288.4C197.249 287.02 194.579 277.11 194.509 275.65C194.179 268.58 193.389 261.55 192.149 254.58C192.099 254.28 192.059 253.97 192.039 253.67C191.699 248.88 195.319 244.72 200.109 244.39C201.489 244.29 202.939 244.24 204.439 244.2C205.939 244.16 207.369 244.16 208.749 244.16C212.529 244.09 216.309 244.27 220.059 244.69L220.889 244.8C222.299 244.98 223.729 245.22 225.109 245.45C231.099 246.46 235.329 251.88 234.869 257.94C234.199 265.87 240.179 270.71 232.529 276.06C231.539 282.86 233.009 297.39 235.859 307.41C236.869 310.97 208.039 310.5 191.859 305.15L197.259 288.41" fill="white"/>
<path d="M207.329 244.16C207.329 244.16 210.339 246.48 214.219 249.82C215.029 250.52 215.919 251.12 216.859 251.62C219.399 252.97 221.719 253.74 222.339 252.52C222.479 252.25 222.589 251.96 222.669 251.65C223.199 249.6 222.979 246.72 221.329 245.4C219.459 243.91 218.559 242.64 218.899 240.63C219.079 239.49 219.489 238.31 219.969 237.16L217.809 235.86L210.119 228.1C210.999 232.86 211.389 241.36 207.339 244.17L207.329 244.16Z" fill="#B97964"/>
<path opacity="0.2" d="M218.819 241.06C216.699 239.8 214.379 237.63 214.659 235.14C214.779 234.09 215.009 233.1 215.259 232.46L219.559 238.15C219.209 239.07 219.079 239.67 218.819 241.06Z" fill="black"/>
<path d="M208.609 219.34C209.329 227.24 209.469 230.6 213.549 234.74C219.689 240.97 229.129 238.88 230.749 231.04C232.209 223.99 230.779 212.25 223.019 208.92C215.369 205.65 207.879 211.43 208.599 219.33L208.609 219.34Z" fill="#B97964"/>
<path d="M218.85 221.91C218.89 222.75 219.339 223.43 219.859 223.44C220.379 223.45 220.769 222.78 220.729 221.95C220.689 221.11 220.239 220.43 219.719 220.42C219.199 220.41 218.81 221.08 218.85 221.91Z" fill="#263238"/>
<path d="M226.649 221.89C226.689 222.7 227.139 223.37 227.659 223.38C228.179 223.39 228.569 222.74 228.529 221.93C228.489 221.12 228.039 220.45 227.519 220.44C226.999 220.43 226.609 221.08 226.649 221.89Z" fill="#263238"/>
<path d="M217.199 219C217.299 219.01 217.399 218.98 217.479 218.91C218.699 217.78 220.069 218.18 220.079 218.18C220.279 218.24 220.489 218.12 220.539 217.92C220.589 217.71 220.459 217.5 220.249 217.43C220.179 217.41 218.459 216.91 216.949 218.31C216.799 218.45 216.799 218.7 216.949 218.86C217.019 218.94 217.109 218.99 217.209 219H217.199Z" fill="#263238"/>
<path d="M229.27 217.92C229.35 217.89 229.42 217.83 229.45 217.75C229.52 217.57 229.43 217.34 229.25 217.24C227.44 216.22 226.1 217 226.05 217.03C225.89 217.12 225.85 217.35 225.96 217.53C226.07 217.71 226.29 217.78 226.45 217.69C226.5 217.66 227.55 217.08 228.99 217.89C229.08 217.94 229.18 217.95 229.27 217.92Z" fill="#263238"/>
<path d="M224.53 221.5C224.53 221.5 225.77 224.46 227.16 226.3C227.4 226.62 227.25 227.09 226.87 227.23C225.89 227.59 224.75 227.26 224.75 227.26L224.52 221.49L224.53 221.5Z" fill="#A24E3F"/>
<path d="M219.43 220.45L221.24 220.02C221.24 220.02 220.25 221.37 219.43 220.45Z" fill="#263238"/>
<path d="M227.329 220.46L229.139 220.03C229.139 220.03 228.149 221.38 227.329 220.46Z" fill="#263238"/>
<path d="M211.359 222.07C211.359 222.07 215.439 215.93 215.229 210.96C215.229 210.96 223.029 208.93 229.259 217.24C230.249 218.56 230.839 220.77 231.729 222.68C231.729 222.68 233.219 207.64 219.869 206.41C206.539 205.18 203.929 223.91 210.429 230.22C210.429 230.22 208.839 225.92 211.359 222.08V222.07Z" fill="#263238"/>
<path d="M206.219 225.78C207.149 227.4 208.669 228.42 210.059 228.77C212.149 229.29 213.229 225.93 212.519 223.83C211.879 221.94 209.819 220.69 207.779 221.11C205.769 221.52 205.149 223.93 206.209 225.78H206.219Z" fill="#B97964"/>
<path opacity="0.2" d="M210.649 225.61C210.519 225.61 210.409 225.51 210.399 225.38C210.349 224.69 210.029 224.04 209.509 223.58C208.989 223.13 208.299 222.89 207.609 222.93C207.479 222.95 207.349 222.83 207.339 222.7C207.339 222.56 207.439 222.44 207.569 222.43C208.389 222.38 209.209 222.66 209.829 223.2C210.449 223.74 210.829 224.52 210.889 225.34C210.889 225.48 210.789 225.6 210.659 225.61H210.639H210.649Z" fill="black"/>
<path d="M222.229 229.91C220.269 229.91 219.569 228.09 219.569 228.07C219.519 227.94 219.589 227.8 219.719 227.75C219.849 227.7 219.989 227.77 220.039 227.9C220.069 227.98 220.769 229.78 222.869 229.34C222.999 229.31 223.139 229.4 223.159 229.53C223.189 229.66 223.099 229.8 222.969 229.82C222.709 229.87 222.469 229.9 222.239 229.9L222.229 229.91Z" fill="#263238"/>
<path opacity="0.2" d="M195.479 293.96L193.729 299.4C193.729 299.4 213.349 295.95 223.189 287.16C230.189 280.9 229.1 278.26 229.1 278.26L221.169 279.03L195.49 293.97L195.479 293.96Z" fill="black"/>
<path opacity="0.2" d="M203.339 265.97L202.269 283.71C199.309 285.59 197.349 282.98 196.899 280.28V275.17L203.339 265.96V265.97Z" fill="black"/>
<path d="M204.4 263.28C204.4 263.28 196.97 281.68 198.31 282.53C199.65 283.38 221.04 277.53 221.04 277.53L224.41 282.37C223.69 285.55 186.78 305.58 183.77 288.83C181.94 278.65 193.01 249.06 193.01 249.06C202.11 245.5 204.4 263.29 204.4 263.29V263.28Z" fill="#B5020B"/>
<path opacity="0.6" d="M204.4 263.28C204.4 263.28 196.97 281.68 198.31 282.53C199.65 283.38 221.04 277.53 221.04 277.53L224.41 282.37C223.69 285.55 186.78 305.58 183.77 288.83C181.94 278.65 193.01 249.06 193.01 249.06C202.11 245.5 204.4 263.29 204.4 263.29V263.28Z" fill="white"/>
<path d="M224.729 282.84C227.259 283.04 227.349 279.23 228.659 279.08C229.429 279.01 230.169 278.82 230.879 278.51C230.879 278.51 230.049 280.8 230.879 280.62C231.709 280.44 234.379 280.3 235.039 278.12C235.699 275.94 233.319 271.28 232.779 270.63C232.239 269.98 229.389 270.18 229.389 270.18C229.389 270.18 232.449 269.39 234.129 269.16C235.809 268.93 236.129 267.01 233.779 267.43C232.819 267.6 225.209 267.66 224.389 268.44C223.569 269.22 220.509 276.91 220.509 276.91C219.379 277.56 222.249 284.01 224.719 282.83L224.729 282.84Z" fill="#B97964"/>
<g opacity="0.3">
<path d="M229.369 269.94C228.589 269.89 227.809 269.94 227.039 270.09C226.919 270.12 226.859 270.24 226.889 270.36C226.919 270.46 227.009 270.53 227.119 270.52C227.849 270.37 228.589 270.32 229.329 270.37C229.599 270.37 229.649 269.96 229.379 269.95L229.369 269.94Z" fill="black"/>
<path d="M233.289 272.25C233.529 272.37 233.779 272.03 233.539 271.9C232.119 271.14 230.619 271.57 229.179 272.05C228.919 272.13 229.109 272.52 229.359 272.44C230.629 272.02 232.019 271.61 233.289 272.25Z" fill="black"/>
<path d="M234.409 274.13C233.179 273.4 231.669 273.33 230.379 273.96C230.279 274.02 230.249 274.16 230.309 274.26C230.359 274.34 230.459 274.38 230.549 274.35C231.699 273.79 233.059 273.84 234.159 274.48C234.389 274.62 234.639 274.27 234.399 274.13H234.409Z" fill="black"/>
<path d="M232.359 277.32C232.469 277.1 232.559 276.86 232.619 276.62C232.679 276.35 232.279 276.2 232.209 276.47C232.029 277.29 231.519 278 230.799 278.43C230.559 278.56 230.739 278.95 230.969 278.82H230.949C231.399 278.57 231.779 278.21 232.069 277.79C232.099 277.79 232.119 277.8 232.159 277.79C232.609 277.63 233.109 277.76 233.419 278.12C233.599 278.33 233.929 278.05 233.739 277.85C233.389 277.45 232.869 277.26 232.359 277.32Z" fill="black"/>
</g>
</svg>
